<?xml version="1.0" encoding="utf-8"?>
<!-- Generator: Adobe Illustrator 21.0.2, SVG Export Plug-In . SVG Version: 6.00 Build 0)  -->
<svg version="1.1" id="Group_119" xmlns="http://www.w3.org/2000/svg" xmlns:xlink="http://www.w3.org/1999/xlink" x="0px" y="0px"
	 viewBox="0 0 200 75.1" style="enable-background:new 0 0 200 75.1;" xml:space="preserve">
<style type="text/css">
	.st0{fill:#FFFFFF;}
</style>
<g id="Group_117" transform="translate(0 60.732)">
	<path id="Path_137" class="st0" d="M89.3,10.1v2.3c0.1,0,0.3,0,0.4,0h9.9c0.3,0,0.4-0.1,0.4-0.4c0-1.2,0-2.4,0-3.5V8.1h-8.8
		c-0.5,0-1,0-1.5-0.1c-1,0-1.8-0.8-1.9-1.8c-0.2-1.3-0.2-2.7,0-4c0-1.1,0.9-1.9,2-1.9c0.3,0,0.7-0.1,1-0.1h7.9c0.4,0,0.8,0,1.3,0.1
		c1.1,0.1,1.9,1,1.9,2c0.2,1.2,0.2,1.2-1,1.5c-0.3,0.1-0.6,0.2-1,0.3V2c-0.1,0-0.3,0-0.4,0h-9.4c-0.3,0-0.4,0.1-0.4,0.4
		c0,1.1,0,2.1,0,3.2c0,0.1,0,0.3,0,0.4h9c0.6,0,1.1,0.1,1.7,0.2c0.8,0.1,1.4,0.8,1.5,1.6c0.1,0.3,0.1,0.6,0.1,0.9
		c0,1.2,0,2.3-0.1,3.4c0.1,1.2-0.8,2.1-2,2.2c-0.1,0-0.2,0-0.3,0c-0.4,0-0.9,0.1-1.4,0.1h-7.8c-0.6,0-1.2-0.1-1.7-0.2
		c-0.8-0.1-1.4-0.7-1.5-1.5c-0.1-0.6-0.1-1.2-0.2-1.8c0-0.1,0.1-0.2,0.2-0.3C88,10.4,88.7,10.2,89.3,10.1z"/>
	<path id="Path_138" class="st0" d="M129.6,10.1v2.3h10.3c0.3,0,0.5-0.1,0.4-0.4c0-1.3,0-2.5,0-3.9h-8.7c-0.5,0-1.1,0-1.6-0.1
		c-1,0-1.8-0.8-1.8-1.8c-0.2-1.4-0.2-2.7,0-4.1c0.1-1.1,0.9-1.9,2-1.9c0.4,0,0.7-0.1,1.1-0.1h7.8c0.4,0,0.8,0,1.3,0.1
		c1.1,0.1,1.9,1,1.9,2.1c0.1,1.2,0.1,1.2-1,1.5c-0.3,0.1-0.6,0.2-1,0.3V2h-10.1v4h8.9c0.5,0,1,0.1,1.5,0.1c1,0.1,1.7,0.8,1.8,1.8
		c0.2,1.4,0.2,2.9,0,4.4c-0.2,1.4-0.8,1.9-2.3,2c-0.5,0-1.1,0.1-1.6,0.1h-7.5c-0.5,0-1,0-1.5-0.1c-1-0.1-1.8-0.8-1.8-1.8
		c-0.1-0.5-0.1-1-0.1-1.5c0-0.1,0.1-0.3,0.2-0.3C128.3,10.4,128.9,10.2,129.6,10.1z"/>
	<path id="Path_139" class="st0" d="M0,14.3V0h0.3C3,0,5.6,0,8.3,0c1,0,2.1,0.1,3.1,0.3c2.2,0.4,4,2.1,4.6,4.2
		c0.6,1.9,0.5,4-0.3,5.9c-0.8,2-2.7,3.4-4.9,3.6c-0.9,0.1-1.8,0.2-2.7,0.2c-2.5,0-5.1,0-7.6,0C0.3,14.3,0.1,14.3,0,14.3z M2.3,7.1
		v4.8c0,0.3,0.1,0.4,0.4,0.4c1.6,0,3.2,0,4.7,0c0.9,0,1.9-0.1,2.8-0.3c1.7-0.2,3.1-1.5,3.4-3.2c0.3-1.1,0.3-2.3,0-3.5
		c-0.2-1.5-1.3-2.6-2.8-3C10.2,2.2,9.4,2.1,8.6,2c-2-0.1-3.9,0-5.9-0.1C2.3,1.9,2.3,2,2.3,2.4C2.3,4,2.3,5.5,2.3,7.1z"/>
	<path id="Path_140" class="st0" d="M197.6,8.8c0.8,0.2,1.6,0.3,2.3,0.5c0.1,1.1,0,2.3-0.2,3.4c-0.3,1-0.9,1.5-2.1,1.6
		c-0.4,0-0.8,0.1-1.3,0.1h-7.5c-0.5,0-0.9,0-1.4-0.1c-1.2,0-2.1-1-2.1-2.2c0-0.1,0-0.1,0-0.2c0-0.5-0.1-1-0.1-1.4v-7
		c0-0.5,0-1,0.1-1.4c0.1-1.1,1-2,2.1-2c0.4,0,0.7-0.1,1.1-0.1h8.2c0.5,0,1,0.1,1.4,0.1c0.9,0.1,1.5,0.8,1.6,1.6
		c0.1,1,0.2,1.9,0.2,2.9c-0.8,0.2-1.6,0.3-2.4,0.4V2.8c0-0.9,0-0.9-0.9-0.9h-9v10.4h9.5c0.5,0,0.5,0,0.5-0.5
		C197.6,10.9,197.6,9.9,197.6,8.8z"/>
	<path id="Path_141" class="st0" d="M175.2,5.9v1.6c0,0.2-0.2,0.2-0.3,0.2h-6.3c-0.2,0-0.3,0-0.3,0.3v4.1c0,0.1,0,0.1,0,0.2h11.5
		v1.9h-13.8V0.1h13.7V2h-11.3v4C170.5,5.9,172.8,5.9,175.2,5.9z"/>
	<path id="Path_142" class="st0" d="M22.4,0h13.7v1.9H24.8v4h6.9v1.9h-6.9v4.6h11.5v2H22.9c-0.3,0-0.4-0.1-0.4-0.4V0.5
		C22.4,0.3,22.4,0.2,22.4,0z"/>
	<path id="Path_143" class="st0" d="M62.1,6.7h6.4v1.9H62v5.7h-2.3V0h13.5v1.9H62.1V6.7z"/>
	<path id="Path_144" class="st0" d="M44.4,14.3h-2.1c-0.1,0-0.2-0.1-0.2-0.2c0-0.1,0-0.2,0-0.2V0.1h13.6V2H44.4v4.8h6.3v1.9h-6.4
		C44.4,10.5,44.4,12.4,44.4,14.3z"/>
	<path id="Path_145" class="st0" d="M155.3,1.9v12.4H153c-0.1,0-0.1-0.1-0.2-0.2c0-0.1,0-0.2,0-0.3V1.9h-6.5V0h15.5v1.9
		C159.6,1.9,157.5,1.9,155.3,1.9z"/>
	<path id="Path_146" class="st0" d="M116.2,14.3h-2.3V8.4c0-0.2-0.1-0.4-0.2-0.6c-2.2-2.5-4.5-5-6.7-7.5c-0.1-0.1-0.2-0.2-0.3-0.3
		c0.1,0,0.2,0,0.3,0h2.3c0.2,0,0.4,0.1,0.5,0.3l5,5.7c0.1,0.1,0.2,0.3,0.4,0.4c0.1-0.1,0.2-0.3,0.4-0.4c1.6-1.9,3.2-3.8,4.8-5.7
		c0.1-0.2,0.4-0.3,0.6-0.3c0.8,0,1.6,0,2.5,0c-0.1,0.1-0.2,0.3-0.3,0.4c-2.2,2.4-4.4,4.9-6.6,7.3c-0.2,0.2-0.3,0.4-0.3,0.7v5.4
		C116.2,14,116.2,14.2,116.2,14.3z"/>
</g>
<g id="Group_118" transform="translate(51.409)">
	<path id="Path_147" class="st0" d="M40.1,50.4c0,0-17.7-11.3-18.6-25.6s15.2-10.4,15.2-10.4c8.8,2.4,16.7,7.3,22.9,14
		c0,0-3.5-9.7-22.1-18.2c-3.7-1.7-7.7-2.5-11.7-2.4c-5.6,0.2-12.1,2.4-11.4,11.4c0.2,2.8,1,5.5,2.3,7.9
		C19.6,32.7,27.1,44.3,40.1,50.4z"/>
	<path id="Path_148" class="st0" d="M57.6,53c0,0-22.7-9.3-25.1-26.3c0,0-1.8-8.2,6.7-10.4c0,0-13.7-2.8-12.2,10.7
		S48.9,54.1,57.6,53z"/>
	<path id="Path_149" class="st0" d="M81.6,4.4c0-2.4-2-4.4-4.4-4.4s-4.4,2-4.4,4.4c0,1.9,1.2,3.6,3.1,4.2v11.6
		c0,1.9-1.6,3.5-3.5,3.5c0,0,0,0,0,0H36.6v3.1h35.8c3.6,0,6.6-3,6.6-6.6V8.5C80.6,7.8,81.6,6.2,81.6,4.4z"/>
	<path id="Path_150" class="st0" d="M89.6,11.7c0-2.4-2-4.4-4.4-4.4c-2.4,0-4.4,2-4.4,4.4c0,1.9,1.2,3.6,3.1,4.2v12.2
		c0,1.9-1.6,3.5-3.5,3.5c0,0,0,0,0,0H39.9v3.1h40.3c3.6,0,6.6-3,6.6-6.6V15.8C88.5,15.1,89.6,13.5,89.6,11.7z"/>
	<path id="Path_151" class="st0" d="M97.2,17.5c0-2.4-2-4.4-4.4-4.4c-2.4,0-4.4,2-4.4,4.4c0,1.8,1.1,3.4,2.7,4.1v13.5
		c0,1.9-1.6,3.5-3.5,3.5c0,0,0,0,0,0H45.1v3.1h42.4c3.6,0,6.6-3,6.6-6.6V21.7C96,21.1,97.2,19.4,97.2,17.5z"/>
	<rect id="Rectangle_27" x="0" y="23.8" class="st0" width="13.1" height="3.4"/>
	<rect id="Rectangle_28" x="3.1" y="31.4" class="st0" width="13.1" height="3.4"/>
	<rect id="Rectangle_29" x="8.2" y="38.1" class="st0" width="11.9" height="3.4"/>
</g>
</svg>
