<svg id="Group_119" data-name="Group 119" xmlns="http://www.w3.org/2000/svg" xmlns:xlink="http://www.w3.org/1999/xlink" viewBox="0 0 200 75.144">
  <defs>
    <style>
      .cls-1 {
        fill: #353132;
      }

      .cls-2 {
        fill: url(#linear-gradient);
      }

      .cls-3 {
        fill: url(#linear-gradient-2);
      }

      .cls-4 {
        fill: #13b1f2;
      }
    </style>
    <linearGradient id="linear-gradient" x1="0.499" y1="1.345" x2="0.499" y2="0.279" gradientUnits="objectBoundingBox">
      <stop offset="0.267" stop-color="#13b1f2"/>
      <stop offset="1" stop-color="#3b3e99"/>
    </linearGradient>
    <linearGradient id="linear-gradient-2" x1="0.5" y1="1.056" x2="0.5" y2="0.225" gradientUnits="objectBoundingBox">
      <stop offset="0" stop-color="#13b1f2"/>
      <stop offset="1" stop-color="#3b3e99"/>
    </linearGradient>
  </defs>
  <g id="Group_117" data-name="Group 117" transform="translate(0 60.732)">
    <path id="Path_137" data-name="Path 137" class="cls-1" d="M258.939,189.083v2.275c.136,0,.272.034.407.034h9.881c.306,0,.407-.068.407-.407-.034-1.188,0-2.377,0-3.531v-.374h-8.761a11.551,11.551,0,0,1-1.528-.1,1.925,1.925,0,0,1-1.868-1.834,11.537,11.537,0,0,1,0-4.041,2.024,2.024,0,0,1,2.037-1.935c.34-.034.679-.068,1.019-.068h7.912a5.276,5.276,0,0,1,1.256.136,2.119,2.119,0,0,1,1.9,2.037c.17,1.222.17,1.222-1.019,1.528-.306.068-.611.17-.951.272v-2.037c-.136,0-.272-.034-.407-.034h-9.372c-.34,0-.407.1-.407.407.034,1.087,0,2.139,0,3.226a1.794,1.794,0,0,0,.034.407h8.964a6.972,6.972,0,0,1,1.664.2,1.875,1.875,0,0,1,1.528,1.562,4.273,4.273,0,0,1,.136.917c0,1.154.034,2.309-.068,3.43a2.1,2.1,0,0,1-2.275,2.207c-.441.034-.917.068-1.358.068H260.23a7.538,7.538,0,0,1-1.732-.2,1.838,1.838,0,0,1-1.528-1.528,16.925,16.925,0,0,1-.17-1.8.337.337,0,0,1,.2-.272A13.189,13.189,0,0,1,258.939,189.083Z" transform="translate(-169.601 -179.017)"/>
    <path id="Path_138" data-name="Path 138" class="cls-1" d="M377.539,189.017v2.309h10.255c.34,0,.475-.068.441-.441-.034-1.29,0-2.547,0-3.9h-8.727a12.2,12.2,0,0,1-1.6-.1,1.914,1.914,0,0,1-1.834-1.8,11.926,11.926,0,0,1,0-4.109,2.011,2.011,0,0,1,2-1.9c.374-.034.713-.068,1.087-.068h7.776a5.275,5.275,0,0,1,1.256.136,2.129,2.129,0,0,1,1.935,2.071c.136,1.188.136,1.188-.985,1.494-.306.068-.611.17-.951.272v-2.037H378.049v4.007h8.9a11.1,11.1,0,0,1,1.494.136,1.993,1.993,0,0,1,1.8,1.8,14.573,14.573,0,0,1,.034,4.38c-.2,1.358-.849,1.9-2.275,2-.543.034-1.087.068-1.63.068h-7.5a7.751,7.751,0,0,1-1.528-.136,1.945,1.945,0,0,1-1.834-1.834,7.71,7.71,0,0,1-.1-1.528c0-.1.1-.306.2-.306C376.181,189.323,376.86,189.187,377.539,189.017Z" transform="translate(-247.93 -178.951)"/>
    <path id="Path_139" data-name="Path 139" class="cls-1" d="M0,193.166v-14.3H.34c2.649,0,5.263-.034,7.912,0a19.1,19.1,0,0,1,3.124.306,5.922,5.922,0,0,1,4.55,4.244,7.992,7.992,0,0,1-.306,5.874,5.849,5.849,0,0,1-4.89,3.633,24.99,24.99,0,0,1-2.716.2c-2.547.034-5.093,0-7.64,0A.706.706,0,0,1,0,193.166ZM2.343,186v4.788c0,.34.068.441.407.441,1.562-.034,3.158.034,4.72-.034a19.327,19.327,0,0,0,2.818-.272,3.892,3.892,0,0,0,3.4-3.192,7.946,7.946,0,0,0,0-3.464,3.716,3.716,0,0,0-2.75-2.988,10.923,10.923,0,0,0-2.343-.407c-1.969-.068-3.939-.034-5.908-.068-.34,0-.407.1-.407.407C2.343,182.81,2.343,184.405,2.343,186Z" transform="translate(0 -178.856)"/>
    <path id="Path_140" data-name="Path 140" class="cls-1" d="M557.86,187.661c.815.17,1.562.34,2.343.475a14.458,14.458,0,0,1-.2,3.43c-.272,1.019-.917,1.46-2.139,1.6-.407.034-.849.068-1.29.068h-7.538a9.6,9.6,0,0,1-1.392-.1,2.118,2.118,0,0,1-2.071-2.309c-.034-.475-.068-.951-.068-1.426v-7.029a6.765,6.765,0,0,1,.136-1.426,2.109,2.109,0,0,1,2.071-1.969c.373-.034.713-.068,1.087-.068h8.183a10.13,10.13,0,0,1,1.426.136,1.81,1.81,0,0,1,1.63,1.63c.136.951.17,1.935.238,2.92-.849.17-1.6.306-2.411.441v-2.343c0-.917,0-.917-.917-.917h-9.032v10.424h9.474c.475,0,.475,0,.475-.475Q557.86,189.29,557.86,187.661Z" transform="translate(-360.271 -178.885)"/>
    <path id="Path_141" data-name="Path 141" class="cls-1" d="M497.87,184.94v1.63c0,.238-.17.238-.306.238h-6.316c-.2,0-.34.034-.34.306v4.109a.6.6,0,0,0,.034.2H502.42v1.935H488.6V179.1h13.718v1.868H490.977v4.007C493.218,184.94,495.527,184.94,497.87,184.94Z" transform="translate(-322.692 -179.017)"/>
    <path id="Path_142" data-name="Path 142" class="cls-1" d="M66.034,179H79.752v1.868H68.411v4.041H75.3v1.868H68.377v4.584H79.854v1.969H66.441c-.34,0-.441-.1-.441-.441v-13.48A1.653,1.653,0,0,1,66.034,179Z" transform="translate(-43.589 -178.951)"/>
    <path id="Path_143" data-name="Path 143" class="cls-1" d="M178.177,185.621h6.35v1.9h-6.384v5.739H175.8V179h13.548v1.9H178.177Z" transform="translate(-116.106 -178.951)"/>
    <path id="Path_144" data-name="Path 144" class="cls-1" d="M126.048,193.361h-2.139c-.068,0-.17-.136-.238-.238-.034-.068,0-.17,0-.238V179.1h13.582v1.868H126.048v4.754h6.35v1.868h-6.384C126.048,189.524,126.048,191.392,126.048,193.361Z" transform="translate(-81.667 -179.017)"/>
    <path id="Path_145" data-name="Path 145" class="cls-1" d="M439.9,180.9V193.3h-2.207c-.068,0-.136-.1-.17-.17a1.133,1.133,0,0,1,0-.34V180.9H431V179h15.45v1.868C444.243,180.9,442.1,180.9,439.9,180.9Z" transform="translate(-284.65 -178.951)"/>
    <path id="Path_146" data-name="Path 146" class="cls-1" d="M323.642,193.261H321.3v-5.874a1.073,1.073,0,0,0-.2-.577c-2.241-2.513-4.482-4.992-6.723-7.47-.068-.1-.17-.17-.272-.306.136,0,.2-.034.306-.034h2.275a.583.583,0,0,1,.543.272l4.992,5.7c.136.136.238.272.407.441.136-.136.238-.272.374-.407,1.6-1.9,3.192-3.769,4.754-5.671a.726.726,0,0,1,.611-.306c.815.034,1.6,0,2.479,0a4.581,4.581,0,0,1-.306.374c-2.207,2.445-4.38,4.89-6.587,7.334a1.009,1.009,0,0,0-.272.679v5.4A1.659,1.659,0,0,0,323.642,193.261Z" transform="translate(-207.445 -178.951)"/>
  </g>
  <g id="Group_118" data-name="Group 118" transform="translate(51.409)">
    <path id="Path_147" data-name="Path 147" class="cls-2" d="M219.128,65.771s-17.657-11.273-18.574-25.6S215.8,29.812,215.8,29.812a48.574,48.574,0,0,1,22.852,14.024s-3.5-9.677-22.139-18.2a25.5,25.5,0,0,0-11.749-2.377c-5.637.238-12.054,2.411-11.443,11.443a19.086,19.086,0,0,0,2.343,7.878C198.618,48.046,206.156,59.625,219.128,65.771Z" transform="translate(-179.06 -15.347)"/>
    <path id="Path_148" data-name="Path 148" class="cls-3" d="M261.2,84.254s-22.682-9.3-25.127-26.35c0,0-1.834-8.217,6.689-10.357,0,0-13.718-2.75-12.19,10.662S252.5,85.34,261.2,84.254Z" transform="translate(-203.608 -31.249)"/>
    <path id="Path_149" data-name="Path 149" class="cls-4" d="M304.159,4.414a4.414,4.414,0,1,0-5.773,4.211V20.238a3.529,3.529,0,0,1-3.531,3.531H259.1v3.056h35.756a6.594,6.594,0,0,0,6.587-6.587V8.489A4.395,4.395,0,0,0,304.159,4.414Z" transform="translate(-222.53)"/>
    <path id="Path_150" data-name="Path 150" class="cls-4" d="M318.577,25.914a4.414,4.414,0,1,0-5.772,4.211V42.349a3.529,3.529,0,0,1-3.531,3.531H268.9v3.056h40.34a6.594,6.594,0,0,0,6.587-6.587V30.023A4.472,4.472,0,0,0,318.577,25.914Z" transform="translate(-229.002 -14.199)"/>
    <path id="Path_151" data-name="Path 151" class="cls-4" d="M336.354,43.014a4.414,4.414,0,1,0-6.078,4.075V60.637a3.529,3.529,0,0,1-3.531,3.531H284.3v3.056h42.445a6.594,6.594,0,0,0,6.587-6.587V47.225A4.451,4.451,0,0,0,336.354,43.014Z" transform="translate(-239.173 -25.493)"/>
    <rect id="Rectangle_27" data-name="Rectangle 27" class="cls-4" width="13.107" height="3.362" transform="translate(0 23.769)"/>
    <rect id="Rectangle_28" data-name="Rectangle 28" class="cls-4" width="13.107" height="3.362" transform="translate(3.056 31.375)"/>
    <rect id="Rectangle_29" data-name="Rectangle 29" class="cls-4" width="11.885" height="3.362" transform="translate(8.217 38.098)"/>
  </g>
</svg>
