<?xml version="1.0" encoding="utf-8"?>
<!-- Generator: Adobe Illustrator 23.0.2, SVG Export Plug-In . SVG Version: 6.00 Build 0)  -->
<svg version="1.1" id="Group_119" xmlns="http://www.w3.org/2000/svg" xmlns:xlink="http://www.w3.org/1999/xlink" x="0px" y="0px"
	 viewBox="0 0 280.3 220.4" style="enable-background:new 0 0 280.3 220.4;" xml:space="preserve">
<style type="text/css">
	.st0{opacity:0.7;fill:#1A171B;}
	.st1{fill:#009DDF;}
	.st2{fill:url(#SVGID_1_);}
	.st3{fill:url(#SVGID_2_);}
	.st4{fill:url(#SVGID_3_);}
	.st5{fill:url(#SVGID_4_);}
	.st6{fill:url(#SVGID_5_);}
	.st7{fill:url(#SVGID_6_);}
	.st8{fill:url(#SVGID_7_);}
	.st9{fill-rule:evenodd;clip-rule:evenodd;fill:url(#SVGID_8_);}
	.st10{fill-rule:evenodd;clip-rule:evenodd;fill:url(#SVGID_9_);}
	.st11{fill-rule:evenodd;clip-rule:evenodd;fill:url(#SVGID_10_);}
	.st12{fill-rule:evenodd;clip-rule:evenodd;fill:url(#SVGID_11_);}
	.st13{fill-rule:evenodd;clip-rule:evenodd;fill:url(#SVGID_12_);}
	.st14{fill-rule:evenodd;clip-rule:evenodd;fill:url(#SVGID_13_);}
	.st15{fill-rule:evenodd;clip-rule:evenodd;fill:url(#SVGID_14_);}
	.st16{fill-rule:evenodd;clip-rule:evenodd;fill:url(#SVGID_15_);}
	.st17{fill-rule:evenodd;clip-rule:evenodd;fill:url(#SVGID_16_);}
	.st18{fill-rule:evenodd;clip-rule:evenodd;fill:url(#SVGID_17_);}
	.st19{fill-rule:evenodd;clip-rule:evenodd;fill:url(#SVGID_18_);}
	.st20{fill-rule:evenodd;clip-rule:evenodd;fill:url(#SVGID_19_);}
	.st21{fill-rule:evenodd;clip-rule:evenodd;fill:url(#SVGID_20_);}
	.st22{fill-rule:evenodd;clip-rule:evenodd;fill:url(#SVGID_21_);}
	.st23{fill-rule:evenodd;clip-rule:evenodd;fill:url(#SVGID_22_);}
	.st24{fill-rule:evenodd;clip-rule:evenodd;fill:url(#SVGID_23_);}
	.st25{fill-rule:evenodd;clip-rule:evenodd;fill:url(#SVGID_24_);}
	.st26{fill-rule:evenodd;clip-rule:evenodd;fill:url(#SVGID_25_);}
	.st27{fill-rule:evenodd;clip-rule:evenodd;fill:url(#SVGID_26_);}
	.st28{fill-rule:evenodd;clip-rule:evenodd;fill:url(#SVGID_27_);}
	.st29{fill-rule:evenodd;clip-rule:evenodd;fill:url(#SVGID_28_);}
	.st30{fill-rule:evenodd;clip-rule:evenodd;fill:url(#SVGID_29_);}
	.st31{fill-rule:evenodd;clip-rule:evenodd;fill:url(#SVGID_30_);}
</style>
<g>
	<g>
		
			<image style="overflow:visible;" width="194" height="190" xlink:href="9711883094B52CC7.png"  transform="matrix(1 0 0 1 7 1.3413)">
		</image>
		
			<image style="overflow:visible;" width="170" height="190" xlink:href="9711883094B52CC2.png"  transform="matrix(1 0 0 1 1 28.3413)">
		</image>
		
			<image style="overflow:visible;" width="239" height="184" xlink:href="9711883094B52CC1.png"  transform="matrix(1 0 0 1 3 10.3413)">
		</image>
		<path class="st0" d="M93.9,243.4C93.9,243.3,93.9,243.3,93.9,243.4C93.9,243.3,93.9,243.3,93.9,243.4
			C93.9,243.3,93.9,243.3,93.9,243.4z"/>
	</g>
	<g>
		<g>
			<path class="st1" d="M111.7,116.8c0.6,2.2,0.3,4.2-0.6,6.2c-0.5,1-1,1.9-1.6,2.8c-0.6,0.9-1.2,1.7-2,2.5
				c-1.2,1.3-2.6,2.5-3.9,3.5c-1.4,1-2.9,2-4.4,2.9c-1.8,1.1-3.6,2-5.5,2.8c-1.9,0.8-3.8,1.6-5.7,2.3c-0.2,0-0.4,0.1-0.5,0.2
				c-0.2,0.1-0.3,0.1-0.4,0.2c-0.3,0.2-0.4,0.4-0.3,0.8c0.1,0.2,0.3,0.4,0.4,0.6c0.1,0.2,0.3,0.4,0.4,0.5c0.5,0.6,0.9,1.3,1.2,2
				c0.3,0.7,0.7,1.4,1,2.1c0.3,0.7,0.4,1.3,0.3,2c0,0.6-0.2,1.2-0.5,1.9c-0.5,0.9-1,1.8-1.6,2.6c-0.6,0.8-1.3,1.5-2.2,2.2
				c-1.4,1-2.7,2-4.1,2.9c-1.4,0.9-2.8,1.8-4.3,2.5l-4.7,2.5c-1.1,0.5-2.2,1-3.4,1.3c-1.2,0.3-2.3,0.5-3.5,0.7
				c-1.5,0.2-2.9-0.1-4.3-0.8c-0.2-0.1-0.4-0.2-0.5-0.3c-0.2-0.1-0.3-0.2-0.4-0.3c-0.4-0.4-0.7-0.8-1-1.2c-0.3-0.4-0.6-0.8-0.9-1.2
				c-0.4-0.6-0.6-1.3-0.7-2c-0.1-0.7-0.1-1.4,0-2.1c0.3-0.1,0.5-0.2,0.8-0.3c0.3-0.1,0.5-0.2,0.8-0.4c0.2-0.1,0.4-0.2,0.5-0.4
				c0.1-0.2,0.3-0.3,0.5-0.5c0,0,0.2,0,0.5,0.1c0.2,0,0.2,0.1,0.1,0.2c-0.1,0.5-0.2,1-0.2,1.5c-0.1,0.5-0.1,1-0.2,1.5
				c0.1,0.3,0.3,0.5,0.5,0.6c0.2,0.1,0.5,0.3,0.7,0.4c0.3,0.2,0.6,0.3,1,0.3c0.3,0,0.6,0,1-0.2c0.9-0.6,2-0.9,3.2-0.9
				c0.2,0,0.5,0,0.8-0.1c1.5-0.6,2.9-1.1,4.3-1.7c1.4-0.6,2.7-1.4,3.9-2.3c0.8-0.6,1.7-1.2,2.5-1.8c0.9-0.5,1.7-1.1,2.5-1.8
				c0.8-0.5,1.5-1.1,2.1-1.8c0.6-0.6,1.3-1.3,1.9-2.1c0.6-0.7,0.9-1.5,1-2.3c0.1-0.6-0.2-1.1-0.8-1.4c-1.1-0.5-2.2-0.8-3.5-0.9
				c-0.4,0-0.8-0.1-1.3-0.1s-0.9,0-1.3,0c-0.4,0-0.8,0-1.2,0.1c-0.4,0-0.8,0.1-1.2,0.1c-0.4,0-0.7,0.1-1,0c-0.3,0-0.6,0-0.9,0.1
				c-0.4,0.2-0.7,0.5-0.9,0.9c-0.2,0.4-0.4,0.8-0.6,1.1c-0.5,0.9-1,1.9-1.5,2.8c-0.5,1-1,1.9-1.6,2.8c-0.1,0.2-0.3,0.4-0.5,0.7
				c-0.2,0.2-0.4,0.4-0.6,0.7c-0.4,0.5-1,0.6-1.8,0.5c-1.1-0.2-1.8-0.8-2.3-1.8c-0.1-0.2-0.2-0.4-0.2-0.5c-0.1-0.2-0.1-0.3-0.2-0.5
				c-0.2-1.2-0.3-2.4-0.1-3.5c0.2-1.1,0.6-2.2,1.3-3.2c0.5-0.8,1.1-1.6,1.5-2.3c0.5-0.8,0.9-1.6,1.3-2.5c0.2-0.5,0.5-1,0.7-1.5
				c0.2-0.5,0.5-1,0.9-1.4c0.4-1,0.8-1.9,1.4-2.7c0.6-0.8,1.1-1.7,1.6-2.6c0.5-0.8,0.9-1.6,1.4-2.4c0.5-0.8,1-1.6,1.5-2.3
				c0.1-0.2,0.3-0.4,0.4-0.6c0.1-0.2,0.2-0.4,0.2-0.7c0-0.6,0.1-1.2,0.4-1.8c0.3-0.5,0.5-1.1,0.6-1.7v-0.6c0.6-0.8,1.3-1.1,2.2-0.8
				c0.7,0.3,1.4,0.5,2.1,0.8c0.7,0.3,1.3,0.6,2,0.9c0.2,0.1,0.4,0.2,0.6,0.4c0.2,0.2,0.4,0.3,0.5,0.4c0.5,0.5,0.8,1.1,0.9,1.8
				c0,0.6,0,1.3-0.3,1.9c-0.1,0.2-0.2,0.5-0.3,0.7c-0.1,0.3-0.3,0.5-0.5,0.7c-0.4,0.5-0.7,1-1,1.5c-0.3,0.5-0.7,1-1,1.5
				c-0.7,1.1-1.4,2.2-2.1,3.3c-0.7,1.1-1.4,2.2-2.1,3.3c-0.1,0.2-0.2,0.4-0.3,0.5c0,0.2-0.1,0.3-0.1,0.5c0,0.1,0,0.3,0.2,0.5
				c0.2,0.1,0.4,0.1,0.5,0.1c0.7,0.1,1.2,0.1,1.6,0.2c0.4,0,0.7,0,1.1-0.1c0.3-0.1,0.7-0.2,1.1-0.3c0.4-0.2,0.9-0.4,1.6-0.7
				c0.7-0.3,1.4-0.7,2.1-1c0.7-0.3,1.4-0.7,2.1-1.1c1.2-0.6,2.4-1.3,3.5-1.9c1.2-0.6,2.3-1.3,3.5-1.9c0.7-0.4,1.4-0.8,2.1-1.2
				c0.6-0.4,1.3-0.9,1.9-1.6c0.3-0.3,0.7-0.6,1.1-0.9c0.4-0.3,0.8-0.5,1.1-0.9c0.4-0.3,0.7-0.6,1-0.9c0.3-0.3,0.6-0.7,0.8-1.1
				c0.5-1.1,1.1-2,1.8-3c0.7-0.9,1.3-1.9,1.9-2.9c0.2-0.4,0.4-0.7,0.6-1.1c0.2-0.4,0.3-0.8,0.4-1.2c0-0.2,0.1-0.5,0-0.7
				c0-0.2,0-0.5,0-0.7c0-0.2-0.1-0.5-0.1-0.7c0-0.2-0.1-0.5-0.1-0.7c-0.1-0.5-0.3-0.9-0.5-1.3c-0.3-0.3-0.6-0.7-1-1
				c-0.9-0.6-1.9-1.1-2.8-1.4c-1-0.3-2-0.6-3.1-0.8c-2.8-0.4-5.6-0.3-8.3,0.1c-1.5,0.2-2.9,0.5-4.3,0.8c-1.4,0.3-2.8,0.7-4.2,1.2
				c-1.2,0.4-2.4,0.8-3.5,1.3c-1.1,0.5-2.3,1.1-3.4,1.6c-0.6,0.4-1.3,0.7-1.9,1c-0.6,0.3-1.2,0.6-1.9,1c-0.5,0.2-1,0.5-1.4,0.8
				c-0.5,0.5-1.1,0.9-1.8,1.1c-0.6,0.2-1.3,0.5-1.9,0.9c-0.2,0.1-0.5,0.2-0.7,0.1c-0.2,0-0.5-0.1-0.7-0.2c-0.2-0.1-0.4-0.2-0.6-0.3
				c-0.2-0.1-0.4-0.2-0.6-0.4l1.8-3.7c0,0,0.1,0.1,0.3,0.1c0.1,0,0.2,0,0.2-0.1c0.1,0,0.1-0.1,0.2-0.1v-0.1h0.1
				c0.1,0.3,0.3,0.3,0.6,0c0.2,0,0.4-0.1,0.6-0.2c0.2-0.1,0.4-0.2,0.6-0.4h-0.1h0.1l0.5-0.5l0.1-0.1l-0.1,0.1
				c0.1-0.1,0.2-0.2,0.3-0.3c0.1-0.1,0.2-0.2,0.3-0.3h-0.6v-0.1h0.6l-0.1,0.1c0.2-0.2,0.4-0.4,0.6-0.5c0.2-0.2,0.3-0.4,0.5-0.5v-0.1
				h0.7l-0.1,0.1c0.6-0.3,1.3-0.5,1.9-0.8c0.6-0.3,1.3-0.5,1.9-0.8c1-0.4,1.9-0.8,2.8-1.2c0.9-0.4,1.9-0.8,2.9-1.2
				c1.9-0.7,3.9-1.3,5.9-1.7c2-0.4,4.1-0.6,6.1-0.7c2-0.1,3.9,0.1,5.8,0.5c1.9,0.4,3.7,1.2,5.4,2.3C108.8,110,110.8,113,111.7,116.8
				z M68.8,114.2h-0.5l0.5-0.5V114.2z M68.8,113.7v-0.1h0.1L68.8,113.7L68.8,113.7z M68.8,114.3L68.8,114.3L68.8,114.3L68.8,114.3z
				 M69.9,113.7c-0.5,0-0.8,0-1-0.1c0.2-0.2,0.5-0.4,0.7-0.6c0.3-0.2,0.5-0.4,0.9-0.4v0.5L69.9,113.7z M77.8,120.4
				c0.1-0.1,0.1-0.3,0-0.5V120.4z"/>
			<path class="st1" d="M102.1,144.8c0.1-0.1,0.2-0.2,0.2-0.3c0-0.1,0.1-0.2,0.2-0.3c0.2-0.1,0.4-0.3,0.5-0.4
				c0.1-0.2,0.2-0.4,0.3-0.6l-0.1,0.1c0.5-0.6,0.8-1.2,1-1.9c0.1-0.6,0.4-1.2,0.8-1.8c0.4-0.6,0.6-1.2,0.8-1.9
				c0-0.2,0.2-0.4,0.5-0.5c0.4-0.2,0.6-0.5,0.8-0.9c0.2-0.3,0.3-0.7,0.5-1.1l-0.1,0.1c0.1-0.1,0.1-0.2,0.1-0.2c0-0.1,0-0.2-0.1-0.4
				c1.1-1.1,1.9-2.2,2.3-3.5c0.2-0.7,0.5-1.3,0.9-1.9c0.4-0.6,0.8-1.2,1.2-1.8c0.9-1.3,1.7-2.6,2.6-3.9c0.9-1.3,1.7-2.6,2.6-3.9
				c0.6-0.9,1.3-1.8,1.9-2.7c0.6-0.9,1.3-1.8,2-2.6c0.7-0.7,1.2-1.3,1.6-1.6c0.4-0.3,0.7-0.5,1.1-0.5c0.3,0,0.7,0.1,1.2,0.3
				c0.5,0.2,1.1,0.5,2.1,0.8c0.2,0.1,0.4,0.2,0.7,0.4c0.2,0.2,0.4,0.3,0.7,0.5c0.6,0.6,0.7,1.2,0.2,1.9c-0.1,0.2-0.2,0.4-0.3,0.6
				c-0.1,0.2-0.3,0.3-0.4,0.5c-1.5,1.6-2.8,3.3-4.1,5c-1.3,1.8-2.5,3.6-3.7,5.4c-0.4,0.6-0.8,1.3-1.3,1.9c-0.5,0.6-0.9,1.2-1.4,1.8
				c-1,1.2-2,2.5-2.9,3.8c-0.9,1.3-1.7,2.7-2.5,4.1c-0.3,0.5-0.6,1-0.9,1.5c-0.3,0.5-0.6,1-0.9,1.5c-0.1,0.2-0.3,0.4-0.4,0.7
				c-0.2,0.2-0.3,0.4-0.5,0.7c-0.5,0.5-0.9,1.1-1.3,1.7c-0.3,0.6-0.7,1.2-0.9,1.9c-0.2,0.4-0.4,0.7-0.5,1.1
				c-0.2,0.3-0.4,0.7-0.6,1.1c-0.3,0.5-0.6,1.1-0.8,1.7c-0.2,0.6-0.3,1.2-0.2,1.9l0.1,0.1l-0.1-0.1c0.5,0,0.9-0.1,1.2-0.5
				c0.6-0.7,1.3-1.4,2.1-2c0.7-0.6,1.5-1.3,2.2-2c0.1-0.1,0.2-0.1,0.3-0.2c0.1,0,0.2,0,0.3,0.1c0.1,0.1,0.2,0.3,0.2,0.4
				c0,0.1,0,0.3-0.1,0.3c-0.4,0.6-0.7,1.3-1,2c-0.3,0.7-0.7,1.3-1.2,1.9c-0.3,0.4-0.5,0.7-0.8,1.1c-0.3,0.4-0.5,0.7-0.7,1.1
				c-0.3,0.5-0.7,1-1.1,1.4c-0.4,0.4-0.8,0.8-1.1,1.3c-0.2,0.2-0.4,0.4-0.7,0.4c-0.3,0.1-0.5,0.1-0.8,0c-0.7-0.1-1.3-0.3-1.6-0.7
				c-0.2-0.2-0.4-0.4-0.6-0.6c-0.2-0.2-0.3-0.4-0.5-0.6c-0.3-0.4-0.4-0.9-0.3-1.5c0-0.2,0.1-0.4,0.1-0.7c0-0.2,0.1-0.4,0.1-0.7
				c0.1-0.7,0-1.3-0.2-1.8c-0.1-0.2-0.2-0.5-0.2-0.8c-0.1-0.3-0.1-0.5-0.2-0.8c-0.1-0.5,0-0.9,0.1-1.2c0.4-0.7,0.7-1.4,1-2.1
				C101.3,146.1,101.7,145.4,102.1,144.8L102.1,144.8z M111.7,127.7v-0.5l-0.1-0.1L111.7,127.7L111.7,127.7z"/>
			<path class="st1" d="M144.7,134.5c0.6,0.9,0.7,1.7,0.1,2.5c-0.2,0.4-0.5,0.7-0.7,1c-0.2,0.3-0.5,0.6-0.7,0.9
				c-1.3,1.6-2.5,3.1-3.7,4.7c-1.2,1.6-2.3,3.2-3.5,4.8c-0.3,0.5-0.5,0.9-0.8,1.3c-0.2,0.4-0.5,0.8-0.8,1.2
				c-0.5,0.8-0.9,1.6-1.2,2.4c-0.3,0.8-0.4,1.7-0.3,2.6c0,0.1,0,0.3-0.1,0.5c0,0.2-0.2,0.4-0.5,0.7c-0.3,0.2-0.6,0.3-0.9,0.2
				c-0.4-0.1-0.6-0.2-0.8-0.3c-0.5-0.4-0.8-0.8-1.1-1.2c-0.3-0.4-0.5-1-0.6-1.6c-0.1-0.6-0.1-1.3-0.1-1.9c0-0.6,0.2-1.2,0.4-1.8
				c0.4-0.9,0.8-1.8,1.2-2.7c0.4-0.9,0.9-1.7,1.4-2.5c0.3-0.4,0.4-0.6,0.3-0.6c-0.1,0-0.3,0.1-0.6,0.3c-0.3,0.2-0.7,0.5-1.2,0.9
				c-0.5,0.4-1.1,0.8-1.6,1.3c-0.3,0.3-0.6,0.5-0.9,0.8c-0.3,0.3-0.8,0.7-1.5,1.3c-0.4,0.4-0.8,0.8-1.3,1.3c-0.5,0.5-1,0.9-1.5,1.2
				l-2.1,1.4c-0.9,0.9-1.7,1.7-2.5,2.3c-0.8,0.6-1.7,1.2-2.6,1.9c-0.5,0.4-1.1,0.4-1.8,0.1c-0.4-0.2-0.8-0.5-1.1-0.8
				c-0.3-0.3-0.6-0.8-0.8-1.3c-0.1-0.5-0.3-1-0.5-1.5c-0.2-0.5-0.3-1-0.5-1.5c-0.4-1.1-0.3-2.2,0.3-3.2c0.4-0.7,0.8-1.5,1.2-2.2
				c0.4-0.7,0.8-1.4,1.3-2.2c0.8-1.2,1.7-2.4,2.5-3.6c0.9-1.2,1.7-2.4,2.5-3.6c0.6-0.8,1.2-1.7,1.7-2.6c0.3-0.6,0.7-0.8,1.4-0.5
				c0.3,0.1,0.6,0.2,0.9,0.2c0.3,0.1,0.6,0.1,0.9,0.2c0.9,0.3,1.4,0.8,1.5,1.6c0.1,0.8,0,1.5-0.4,2.1c-1.4,1.9-2.7,3.7-4.1,5.6
				c-1.3,1.9-2.7,3.7-4,5.7c-0.4,0.5-0.8,1.1-1.2,1.8c-0.4,0.6-0.6,1.3-0.8,2c0,0.1,0,0.2,0.1,0.2c0.1,0.1,0.2,0.1,0.2,0.2h0.1
				c0.1,0,0.2,0,0.2-0.1c0.1,0,0.2-0.1,0.2-0.1c0.1,0,0.1-0.1,0.2-0.1c0.5-0.4,1-0.8,1.5-1.2c0.5-0.4,1-0.8,1.5-1.2
				c1.2-1,2.4-2,3.5-2.9c1.1-0.9,2.3-1.9,3.5-2.8c0.2-0.1,0.5-0.4,0.9-0.7c0.4-0.3,0.8-0.7,1.3-1.1c0.5-0.4,1.1-0.8,1.6-1.3
				c0.6-0.5,1.2-0.9,1.7-1.4c0.4-0.3,0.7-0.6,1-0.9c0.3-0.3,0.6-0.6,1-0.8c0.9-0.5,1.7-1.2,2.5-1.9c0.7-0.7,1.5-1.4,2.3-2
				c0.5-0.7,1.2-1.4,2-2.1c0.1-0.2,0.3-0.4,0.4-0.6c0.2-0.2,0.4-0.2,0.6-0.2c0.7,0,1.4,0.3,1.9,0.8
				C144.4,134,144.6,134.2,144.7,134.5z"/>
			<path class="st1" d="M149.1,157.3c-0.3-0.1-0.5-0.3-0.8-0.4c-0.3-0.1-0.5-0.3-0.8-0.5c-0.8-0.4-1.5-0.9-2.1-1.5
				c-0.6-0.6-1.1-1.4-1.5-2.3c-0.1-0.2-0.2-0.4-0.3-0.6c-0.1-0.2-0.2-0.4-0.3-0.6c-0.6-1.2-0.9-2.5-1-3.7c0-0.1,0-0.2,0-0.4
				c0-0.2,0-0.4-0.1-0.6c-0.1-1.1,0-2.1,0.2-3.1c0.3-1,0.6-1.9,0.9-2.6c0.4-0.9,0.9-1.7,1.4-2.5c0,0-0.1,0.1-0.1,0.1
				c0,0-0.1,0.1-0.1,0.2c0.3-0.4,0.5-0.7,0.8-1.1c0.3-0.4,0.5-0.8,0.7-1.1c0.6-1.1,1.4-2,2.2-2.9c0.8-0.9,1.7-1.7,2.6-2.5
				c0.5-0.4,1-0.7,1.6-0.9c0.6-0.2,1.2-0.4,1.8-0.5c0.3-0.1,0.6-0.1,0.8,0.1c0.8,0.3,1.6,0.6,2.3,0.9c0.8,0.3,1.5,0.7,2.2,1.2
				c1,0.6,1.6,1.3,1.8,2.1c0.3,0.8,0.2,1.8-0.2,3c-0.1,0.5-0.3,1-0.6,1.3c-0.3,0.4-0.5,0.8-0.8,1.3c-0.6,1.1-1.4,2.1-2.3,2.9
				c-0.9,0.8-1.9,1.6-3,2.2c-0.9,0.5-1.8,0.8-2.7,0.8c-0.2,0-0.5-0.1-0.7,0c-0.2,0-0.5,0-0.7,0c-0.5,0-0.8,0.2-1,0.6
				c-0.5,0.9-0.9,1.8-1.2,2.7c-0.3,0.9-0.5,1.8-0.5,2.8c0,0.5,0.1,1,0.3,1.6c0.3,0.7,0.8,0.9,1.5,0.6c0.6-0.2,1.2-0.5,1.8-0.9
				c0.6-0.4,1.1-0.7,1.7-1c0.2-0.2,0.5-0.4,0.7-0.5c0.2-0.2,0.5-0.3,0.8-0.5c0.4-0.2,0.7-0.4,0.9-0.7c0.3-0.3,0.5-0.5,0.7-0.7
				c0.6-0.6,1.3-1.3,2-1.9c0.7-0.6,1.4-1.2,2.1-1.9c0.5-0.5,1.1-0.9,1.6-1.3c0.5-0.4,1.1-0.9,1.6-1.4c0,0,0.4-0.3,1-0.9
				c0.6-0.5,1.3-1.1,2-1.8c0.7-0.7,1.4-1.3,2-1.8c0.6-0.5,1-0.8,1.1-0.9l1,1.4c0.1,0.2-0.1,0.8-0.8,1.6c-0.7,0.8-1.5,1.8-2.4,2.8
				c-1,1.1-1.9,2.1-3,3.2c-1,1.1-1.8,2-2.3,2.7c-0.5,0.7-1,1.3-1.6,1.8c-0.5,0.5-0.9,0.8-1,0.9c-0.5,0.5-1.1,1-1.7,1.5
				c-0.6,0.5-1.1,1-1.6,1.6c-0.8,0.9-1.7,1.5-2.8,2c-0.7,0.3-1.5,0.4-2.2,0.4C150.6,157.8,149.9,157.6,149.1,157.3z M153.6,139.5
				c-0.1,0.3,0,0.4,0.2,0.3c0.1,0,0.1-0.1,0.1-0.2v-0.4L153.6,139.5z M156.9,135.5c-0.6,0.5-1.2,1-1.7,1.6c-0.5,0.6-0.9,1.2-1.2,2
				c0.2,0.1,0.4,0.1,0.4,0.1c0.7-0.4,1.4-0.8,1.9-1.3c0.5-0.5,1-1.2,1.2-2c0-0.1,0-0.2,0-0.2c-0.1-0.1-0.1-0.1-0.2-0.2
				C157.2,135.3,157,135.3,156.9,135.5z"/>
			<path class="st1" d="M225.1,113.7c0.2,0.8,0,1.6-0.6,2.4c-0.5,0.7-1.1,1.3-1.6,1.9c-0.8,0.7-1.6,1.3-2.5,1.8
				c-0.9,0.5-1.8,0.9-2.8,1.2c-0.5,0.1-1,0.2-1.5,0.2c-0.5,0-1-0.1-1.5-0.3c-0.3-0.1-0.6-0.3-0.9-0.4c-0.3-0.1-0.6-0.3-0.9-0.4
				c0.2-0.3,0.3-0.5,0.3-0.5c0.9-0.5,1.7-1,2.4-1.6c0.7-0.6,1.5-1.2,2.2-1.9c0.5-0.4,0.9-0.9,1.3-1.3c0.4-0.5,0.7-1,1-1.5
				c0.2-0.4,0.3-0.7,0.1-1c-0.2-0.3-0.5-0.4-0.8-0.4c-0.4,0-0.8,0-1.3,0c-0.4,0-0.9,0-1.3,0.1c-1.9,0.2-3.7,0.6-5.5,1.1
				c-1.8,0.5-3.5,1-5.3,1.7c-0.2,0.1-0.5,0.2-0.8,0.3c-0.3,0.1-0.5,0.2-0.8,0.3c-1.6,0.6-3.2,1.3-4.7,2.1c-1.5,0.8-3,1.7-4.5,2.5
				c-0.5,0.3-0.9,0.5-1.3,0.8c-0.4,0.3-0.8,0.5-1.2,0.8c-1.2,0.8-2.3,1.8-3.3,2.8c-1,1.1-2,2.1-2.9,3.2c-0.4,0.4-0.7,0.9-0.9,1.4
				c-0.2,0.5-0.5,1-0.7,1.5c-0.5,1.3-0.2,2.3,0.9,3c1.1,0.7,2.2,1.4,3.2,1.9c1.6,0.8,3.1,1.5,4.6,2.1c1.7,0.7,3.5,1.4,5.2,2.1
				c1.7,0.7,3.4,1.4,5.2,2c1,0.4,1.9,0.8,2.8,1.3c0.9,0.5,1.8,1.1,2.6,1.7c0.5,0.5,1,0.8,1.6,1.2c1.1,0.7,1.9,1.6,2.5,2.6
				c0.6,1,1.1,2.1,1.6,3.2c0.5,1.2,0.2,2.4-0.7,3.4c-0.2,0.3-0.5,0.6-0.8,0.9c-0.3,0.3-0.6,0.6-1,0.8c-0.9,0.6-1.8,1.2-2.7,1.8
				c-0.9,0.5-1.9,1-2.8,1.5c-1.7,0.8-3.5,1.6-5.3,2.2c-1.8,0.6-3.6,1.2-5.5,1.8c-1.1,0.3-2.1,0.5-3.3,0.7c-1.1,0.1-2.2,0.2-3.3,0.1
				c-1.6-0.1-3.1-0.4-4.5-0.9c-1.4-0.5-2.7-1.4-3.8-2.6c-0.9-1-1.6-2-2.2-3.2c-0.5-1.2-0.9-2.4-1.1-3.7c0-0.5,0.2-0.9,0.7-1.2
				c0.3-0.1,0.6-0.3,0.9-0.4c0.3-0.1,0.6-0.2,0.9-0.3c0.9,0.5,1.3,1.3,1.2,2.3c0,0.3-0.1,0.6-0.1,0.9c0,0.3,0,0.6,0,0.9
				c0,0.4,0.1,0.8,0.3,1.1c0.2,0.3,0.5,0.6,0.8,0.8c0.2,0.1,0.4,0.2,0.5,0.3c0.2,0.1,0.3,0.2,0.5,0.2c0.9,0.2,1.8,0.5,2.7,0.7
				c0.9,0.2,1.8,0.3,2.7,0.1c0.4-0.1,0.8-0.1,1.3-0.1c0.4,0,0.9,0,1.3,0c1.1-0.1,2.2-0.4,3.2-0.8c1.5-0.6,2.9-1.3,4.3-2
				c1.4-0.7,2.8-1.4,4.3-2.1c0.6-0.3,1.2-0.6,1.7-0.9c0.6-0.3,1.1-0.7,1.6-1c0.1,0,0.3-0.2,0.3-0.4c0.1-0.5,0.5-0.9,1-1.4
				c0.3-0.2,0.5-0.5,0.8-0.8c0.4-0.4,0.5-0.8,0.4-1.3c-0.1-0.5-0.3-0.8-0.8-1.1c-0.6-0.3-1.3-0.6-1.9-0.9c-0.6-0.3-1.2-0.6-1.9-0.9
				c-1.3-0.5-2.6-1-3.8-1.4c-1.3-0.4-2.5-0.9-3.8-1.4c-1-0.4-2-0.7-3-1.1c-1-0.4-2-0.7-3.1-1.1c-1.4-0.5-2.7-1.2-3.8-2.1
				c-1.1-0.9-2.2-1.9-3.2-3c-0.4-0.4-0.7-0.8-1-1.3c-0.3-0.5-0.5-1-0.7-1.5c-0.2-0.6-0.4-1.2-0.6-1.7c-0.2-0.5-0.4-1.1-0.6-1.7
				c-0.3-0.8-0.4-1.5-0.3-2.2c0.1-0.7,0.3-1.4,0.5-2.1c0-0.2,0.1-0.4,0.2-0.5c0.1-0.1,0.2-0.3,0.3-0.5c0.7-1,1.5-1.9,2.3-2.8
				c0.8-0.9,1.7-1.7,2.8-2.4c0.9-0.6,1.7-1.2,2.6-1.8c0.9-0.6,1.8-1.2,2.7-1.8c0.4-0.2,0.7-0.4,1.1-0.5c0.4-0.1,0.8-0.3,1.1-0.4
				c0.4-0.5,0.9-0.9,1.4-1.2c0.5-0.3,1-0.5,1.5-0.8c0.2-0.1,0.5-0.3,0.8-0.3c0.3-0.1,0.5-0.2,0.8-0.3c1.8-1,3.6-1.9,5.5-2.5
				c1.9-0.7,3.8-1.3,5.7-1.8c0.4-0.1,0.8-0.2,1.2-0.3c0.4-0.1,0.8-0.2,1.2-0.3c0.5-0.1,1-0.2,1.5-0.4c0.5-0.2,0.9-0.4,1.3-0.8
				c0.2-0.2,0.5-0.3,0.8-0.3c0.3,0,0.6,0,0.9,0.1c0.6,0.1,1.3,0.5,2,1c0.5,0.4,1,0.7,1.5,1.1c0.5,0.3,1,0.7,1.5,1.1
				c0.8,0.6,1.4,1.4,1.9,2.2C224.5,111.9,224.8,112.8,225.1,113.7z M193,116.5l-0.1-0.1L193,116.5L193,116.5z M194.7,115.1
				c0.2,0,0.4-0.1,0.6-0.1c0.2,0,0.4-0.1,0.5-0.2c-0.2,0-0.4-0.1-0.6-0.1c-0.2,0-0.4,0-0.6-0.1C194.6,114.9,194.6,115,194.7,115.1z
				 M196.9,114.2c-0.4,0-0.7,0.2-1,0.5c0.2-0.1,0.3-0.2,0.5-0.3C196.6,114.4,196.7,114.3,196.9,114.2z M197.2,114.1
				c0.4-0.2,0.7-0.3,1-0.3C197.8,113.7,197.4,113.8,197.2,114.1z"/>
			<path class="st1" d="M223.7,157.3c-0.3-0.1-0.5-0.3-0.8-0.4c-0.3-0.1-0.5-0.3-0.8-0.5c-0.8-0.4-1.5-0.9-2.1-1.5
				c-0.6-0.6-1.1-1.4-1.5-2.3c-0.1-0.2-0.2-0.4-0.3-0.6c-0.1-0.2-0.2-0.4-0.3-0.6c-0.6-1.2-0.9-2.5-1-3.7c0-0.1,0-0.2,0-0.4
				c0-0.2,0-0.4-0.1-0.6c-0.1-1.1,0-2.1,0.2-3.1c0.3-1,0.6-1.9,0.9-2.6c0.4-0.9,0.9-1.7,1.4-2.5c0,0-0.1,0.1-0.1,0.1
				c0,0-0.1,0.1-0.1,0.2c0.3-0.4,0.5-0.7,0.8-1.1c0.3-0.4,0.5-0.8,0.7-1.1c0.6-1.1,1.4-2,2.2-2.9c0.8-0.9,1.7-1.7,2.6-2.5
				c0.5-0.4,1-0.7,1.6-0.9c0.6-0.2,1.2-0.4,1.8-0.5c0.3-0.1,0.6-0.1,0.8,0.1c0.8,0.3,1.6,0.6,2.3,0.9c0.8,0.3,1.5,0.7,2.2,1.2
				c1,0.6,1.6,1.3,1.8,2.1c0.3,0.8,0.2,1.8-0.2,3c-0.1,0.5-0.3,1-0.6,1.3c-0.3,0.4-0.5,0.8-0.8,1.3c-0.6,1.1-1.4,2.1-2.3,2.9
				c-0.9,0.8-1.9,1.6-3,2.2c-0.9,0.5-1.8,0.8-2.7,0.8c-0.2,0-0.5-0.1-0.7,0c-0.2,0-0.5,0-0.7,0c-0.5,0-0.8,0.2-1,0.6
				c-0.5,0.9-0.9,1.8-1.2,2.7c-0.3,0.9-0.5,1.8-0.5,2.8c0,0.5,0.1,1,0.3,1.6c0.3,0.7,0.8,0.9,1.5,0.6c0.6-0.2,1.2-0.5,1.8-0.9
				c0.6-0.4,1.1-0.7,1.7-1c0.2-0.2,0.5-0.4,0.7-0.5c0.3-0.2,0.5-0.3,0.8-0.5c0.4-0.2,0.7-0.4,0.9-0.7c0.3-0.3,0.5-0.5,0.7-0.7
				c0.6-0.6,1.3-1.3,2-1.9c0.7-0.6,1.4-1.2,2.1-1.9c0.5-0.5,1.1-0.9,1.6-1.3c0.5-0.4,1.1-0.9,1.6-1.4c0,0,0.4-0.3,1-0.9
				c0.6-0.5,1.3-1.1,2-1.8c0.7-0.7,1.4-1.3,2-1.8c0.6-0.5,1-0.8,1.1-0.9l1,1.4c0.1,0.2-0.1,0.8-0.8,1.6c-0.7,0.8-1.5,1.8-2.4,2.8
				c-1,1.1-1.9,2.1-3,3.2c-1,1.1-1.8,2-2.3,2.7c-0.5,0.7-1,1.3-1.6,1.8c-0.5,0.5-0.9,0.8-1,0.9c-0.5,0.5-1.1,1-1.7,1.5
				c-0.6,0.5-1.1,1-1.6,1.6c-0.8,0.9-1.7,1.5-2.8,2c-0.7,0.3-1.5,0.4-2.2,0.4C225.2,157.8,224.4,157.6,223.7,157.3z M228.2,139.5
				c-0.1,0.3,0,0.4,0.2,0.3c0.1,0,0.1-0.1,0.1-0.2v-0.4L228.2,139.5z M231.5,135.5c-0.6,0.5-1.2,1-1.7,1.6c-0.5,0.6-0.9,1.2-1.2,2
				c0.2,0.1,0.4,0.1,0.4,0.1c0.7-0.4,1.4-0.8,1.9-1.3c0.6-0.5,1-1.2,1.2-2c0-0.1,0-0.2,0-0.2c-0.1-0.1-0.1-0.1-0.2-0.2
				C231.7,135.3,231.6,135.3,231.5,135.5z"/>
			<path class="st1" d="M270.9,144.6c-1.1,0.9-2,1.9-3,2.9c-0.9,1-1.9,2-2.8,2.9l-3.3,3.5c-0.5,0.5-1,0.5-1.7,0.3
				c-1.3-0.5-2.3-1.5-2.8-2.7c-0.1-0.2-0.2-0.5-0.3-0.7c-0.1-0.3-0.2-0.5-0.4-0.7c-0.3-0.5-0.4-1.1-0.4-1.8c0-0.3,0-0.5,0.1-0.8
				c0-0.2,0.2-0.5,0.4-0.7c0.8-0.8,1.1-1.6,0.8-2.6c-0.1,0.2-0.3,0.4-0.4,0.5c-0.1,0.2-0.3,0.3-0.4,0.4c-0.4,0.3-0.8,0.6-1.1,0.9
				c-0.3,0.3-0.7,0.7-1,1c-0.9,1.1-1.8,2.1-2.8,3.1c-0.9,1-1.9,2-2.8,3.1c-0.4,0.4-0.7,0.7-1.1,1.1c-0.4,0.4-0.8,0.7-1.1,1.1
				c-0.3,0.2-0.5,0.5-0.8,0.7c-0.3,0.3-0.5,0.5-0.7,0.8c-0.4,0.5-0.8,0.8-1.3,1.2c-0.5,0.3-1,0.6-1.5,0.9c-1.2,0.5-2.3,0.6-3.4,0.2
				c-0.5-0.2-0.9-0.4-1.1-0.7c-0.2-0.5-0.5-0.9-0.8-1.3c-0.3-0.3-0.6-0.7-0.9-1.1c-0.2-0.2-0.3-0.5-0.5-0.8
				c-0.1-0.3-0.3-0.5-0.3-0.8c0-0.4,0-0.7,0.1-0.9c0.1-0.3,0.2-0.5,0.3-0.7c0.6-1.3,1.2-2.6,1.9-3.8c0.7-1.3,1.4-2.5,2.2-3.7
				c0.2-0.2,0.4-0.5,0.5-0.7c0.2-0.3,0.2-0.6,0.2-0.9c1-0.7,1.6-1.6,1.9-2.7c0.1-0.4,0.2-0.8,0.4-1.1c0.2-0.3,0.4-0.7,0.7-1
				c2.1-2.8,4.5-5.4,7.1-7.8c0.3-0.3,0.6-0.5,1-0.8c0.3-0.2,0.7-0.4,1-0.5c0.5-0.2,1-0.3,1.4-0.3c0.5,0,0.9,0,1.4,0.1
				c0.5,0.2,0.9,0.3,1.4,0.4c0.5,0.1,0.9,0.2,1.4,0.4c1.4,0.4,2.8,1,4.1,1.9c0.5,0.4,1,0.3,1.4-0.1l1.9-1.9c0.5-0.5,1-0.7,1.6-0.5
				c0.3,0.1,0.6,0.2,0.9,0.2c0.3,0.1,0.6,0.1,0.9,0.2c0.7,0.1,1.4,0.5,2,1.2c0.2,0.2,0.3,0.4,0.3,0.7c0,0.3-0.1,0.5-0.2,0.7
				l-0.2,0.2c-1.1,0.9-1.9,1.9-2.7,3.1c-0.7,1.1-1.5,2.3-2.2,3.5c-0.8,1.4-1.5,2.8-2.3,4.2c-0.8,1.4-1.5,2.9-2.1,4.3
				c-0.2,0.5-0.4,1-0.4,1.5c-0.1,0.2,0,0.3,0.2,0.4c0.1,0.1,0.3,0.1,0.5,0c0.4-0.2,0.6-0.5,0.8-0.7c0.5-0.5,1.1-1.1,1.6-1.7
				c0.6-0.6,1.1-1.2,1.6-1.8l4.7-4.9c0.5-0.6,1.1-1.2,1.7-1.8c0.6-0.6,1.1-1.1,1.7-1.7c0.1-0.1,0.3-0.3,0.6-0.6
				c0.5-0.5,0.9-1.1,1.3-1.7c0.4-0.6,0.9-1.2,1.5-1.7l1.4,2.1c0,0-0.2,0.2-0.5,0.5c-0.3,0.3-0.7,0.8-1.1,1.2c-0.4,0.5-0.9,1-1.3,1.6
				c-0.5,0.6-0.9,1.1-1.3,1.6c-0.4,0.5-0.8,0.9-1.1,1.2c-0.3,0.3-0.4,0.5-0.4,0.6c-0.4,0.5-0.8,0.9-1.2,1.3
				C271.8,143.9,271.3,144.3,270.9,144.6z M260.2,135.9c0.1-0.1,0.2-0.3,0.2-0.4c0-0.2,0.1-0.3,0.2-0.5c-0.4-0.3-0.7-0.5-1.1-0.6
				c-0.4-0.1-0.8-0.1-1.2,0c-1.1,0.2-2,0.7-2.8,1.4c-0.5,0.5-1,0.9-1.5,1.3c-0.5,0.4-0.9,0.9-1.4,1.4c-0.6,0.7-1.3,1.4-1.9,2.1
				c-0.6,0.7-1.2,1.4-1.9,2.1c-2.4,2.6-4.6,5.5-6.4,8.7c-0.2,0.4-0.4,0.7-0.6,1.1c-0.2,0.4-0.4,0.8-0.8,1.1
				c-0.1,0.2-0.2,0.4-0.2,0.6c-0.1,0.2-0.1,0.4-0.2,0.7c0,0.1,0,0.2,0.1,0.2c0,0,0.1,0.1,0.1,0.2c0.1,0.1,0.2,0.1,0.3,0
				c0.1-0.1,0.3-0.2,0.4-0.2c0.2-0.1,0.3-0.1,0.4-0.2c1.2-1.2,2.5-2.4,3.7-3.6c1.2-1.2,2.4-2.5,3.5-3.8c0.7-0.8,1.4-1.6,2.1-2.3
				c0.7-0.8,1.5-1.5,2.3-2.2c0.4-0.3,0.7-0.6,1-1c0.4-0.6,0.9-1.2,1.4-1.7c0.5-0.5,1.1-1,1.6-1.6c0.5-0.4,0.9-0.8,1.3-1.3
				C259.3,136.8,259.8,136.4,260.2,135.9z M257.4,144.1l0.1,0.1C257.5,144.2,257.5,144.1,257.4,144.1z"/>
		</g>
		<g>
			<linearGradient id="SVGID_1_" gradientUnits="userSpaceOnUse" x1="84.8239" y1="164.8737" x2="84.8239" y2="104.9762">
				<stop  offset="0" style="stop-color:#FFFFFF"/>
				<stop  offset="1" style="stop-color:#172982"/>
			</linearGradient>
			<path class="st2" d="M111.7,116.8c0.6,2.2,0.3,4.2-0.6,6.2c-0.5,1-1,1.9-1.6,2.8c-0.6,0.9-1.2,1.7-2,2.5
				c-1.2,1.3-2.6,2.5-3.9,3.5c-1.4,1-2.9,2-4.4,2.9c-1.8,1.1-3.6,2-5.5,2.8c-1.9,0.8-3.8,1.6-5.7,2.3c-0.2,0-0.4,0.1-0.5,0.2
				c-0.2,0.1-0.3,0.1-0.4,0.2c-0.3,0.2-0.4,0.4-0.3,0.8c0.1,0.2,0.3,0.4,0.4,0.6c0.1,0.2,0.3,0.4,0.4,0.5c0.5,0.6,0.9,1.3,1.2,2
				c0.3,0.7,0.7,1.4,1,2.1c0.3,0.7,0.4,1.3,0.3,2c0,0.6-0.2,1.2-0.5,1.9c-0.5,0.9-1,1.8-1.6,2.6c-0.6,0.8-1.3,1.5-2.2,2.2
				c-1.4,1-2.7,2-4.1,2.9c-1.4,0.9-2.8,1.8-4.3,2.5l-4.7,2.5c-1.1,0.5-2.2,1-3.4,1.3c-1.2,0.3-2.3,0.5-3.5,0.7
				c-1.5,0.2-2.9-0.1-4.3-0.8c-0.2-0.1-0.4-0.2-0.5-0.3c-0.2-0.1-0.3-0.2-0.4-0.3c-0.4-0.4-0.7-0.8-1-1.2c-0.3-0.4-0.6-0.8-0.9-1.2
				c-0.4-0.6-0.6-1.3-0.7-2c-0.1-0.7-0.1-1.4,0-2.1c0.3-0.1,0.5-0.2,0.8-0.3c0.3-0.1,0.5-0.2,0.8-0.4c0.2-0.1,0.4-0.2,0.5-0.4
				c0.1-0.2,0.3-0.3,0.5-0.5c0,0,0.2,0,0.5,0.1c0.2,0,0.2,0.1,0.1,0.2c-0.1,0.5-0.2,1-0.2,1.5c-0.1,0.5-0.1,1-0.2,1.5
				c0.1,0.3,0.3,0.5,0.5,0.6c0.2,0.1,0.5,0.3,0.7,0.4c0.3,0.2,0.6,0.3,1,0.3c0.3,0,0.6,0,1-0.2c0.9-0.6,2-0.9,3.2-0.9
				c0.2,0,0.5,0,0.8-0.1c1.5-0.6,2.9-1.1,4.3-1.7c1.4-0.6,2.7-1.4,3.9-2.3c0.8-0.6,1.7-1.2,2.5-1.8c0.9-0.5,1.7-1.1,2.5-1.8
				c0.8-0.5,1.5-1.1,2.1-1.8c0.6-0.6,1.3-1.3,1.9-2.1c0.6-0.7,0.9-1.5,1-2.3c0.1-0.6-0.2-1.1-0.8-1.4c-1.1-0.5-2.2-0.8-3.5-0.9
				c-0.4,0-0.8-0.1-1.3-0.1s-0.9,0-1.3,0c-0.4,0-0.8,0-1.2,0.1c-0.4,0-0.8,0.1-1.2,0.1c-0.4,0-0.7,0.1-1,0c-0.3,0-0.6,0-0.9,0.1
				c-0.4,0.2-0.7,0.5-0.9,0.9c-0.2,0.4-0.4,0.8-0.6,1.1c-0.5,0.9-1,1.9-1.5,2.8c-0.5,1-1,1.9-1.6,2.8c-0.1,0.2-0.3,0.4-0.5,0.7
				c-0.2,0.2-0.4,0.4-0.6,0.7c-0.4,0.5-1,0.6-1.8,0.5c-1.1-0.2-1.8-0.8-2.3-1.8c-0.1-0.2-0.2-0.4-0.2-0.5c-0.1-0.2-0.1-0.3-0.2-0.5
				c-0.2-1.2-0.3-2.4-0.1-3.5c0.2-1.1,0.6-2.2,1.3-3.2c0.5-0.8,1.1-1.6,1.5-2.3c0.5-0.8,0.9-1.6,1.3-2.5c0.2-0.5,0.5-1,0.7-1.5
				c0.2-0.5,0.5-1,0.9-1.4c0.4-1,0.8-1.9,1.4-2.7c0.6-0.8,1.1-1.7,1.6-2.6c0.5-0.8,0.9-1.6,1.4-2.4c0.5-0.8,1-1.6,1.5-2.3
				c0.1-0.2,0.3-0.4,0.4-0.6c0.1-0.2,0.2-0.4,0.2-0.7c0-0.6,0.1-1.2,0.4-1.8c0.3-0.5,0.5-1.1,0.6-1.7v-0.6c0.6-0.8,1.3-1.1,2.2-0.8
				c0.7,0.3,1.4,0.5,2.1,0.8c0.7,0.3,1.3,0.6,2,0.9c0.2,0.1,0.4,0.2,0.6,0.4c0.2,0.2,0.4,0.3,0.5,0.4c0.5,0.5,0.8,1.1,0.9,1.8
				c0,0.6,0,1.3-0.3,1.9c-0.1,0.2-0.2,0.5-0.3,0.7c-0.1,0.3-0.3,0.5-0.5,0.7c-0.4,0.5-0.7,1-1,1.5c-0.3,0.5-0.7,1-1,1.5
				c-0.7,1.1-1.4,2.2-2.1,3.3c-0.7,1.1-1.4,2.2-2.1,3.3c-0.1,0.2-0.2,0.4-0.3,0.5c0,0.2-0.1,0.3-0.1,0.5c0,0.1,0,0.3,0.2,0.5
				c0.2,0.1,0.4,0.1,0.5,0.1c0.7,0.1,1.2,0.1,1.6,0.2c0.4,0,0.7,0,1.1-0.1c0.3-0.1,0.7-0.2,1.1-0.3c0.4-0.2,0.9-0.4,1.6-0.7
				c0.7-0.3,1.4-0.7,2.1-1c0.7-0.3,1.4-0.7,2.1-1.1c1.2-0.6,2.4-1.3,3.5-1.9c1.2-0.6,2.3-1.3,3.5-1.9c0.7-0.4,1.4-0.8,2.1-1.2
				c0.6-0.4,1.3-0.9,1.9-1.6c0.3-0.3,0.7-0.6,1.1-0.9c0.4-0.3,0.8-0.5,1.1-0.9c0.4-0.3,0.7-0.6,1-0.9c0.3-0.3,0.6-0.7,0.8-1.1
				c0.5-1.1,1.1-2,1.8-3c0.7-0.9,1.3-1.9,1.9-2.9c0.2-0.4,0.4-0.7,0.6-1.1c0.2-0.4,0.3-0.8,0.4-1.2c0-0.2,0.1-0.5,0-0.7
				c0-0.2,0-0.5,0-0.7c0-0.2-0.1-0.5-0.1-0.7c0-0.2-0.1-0.5-0.1-0.7c-0.1-0.5-0.3-0.9-0.5-1.3c-0.3-0.3-0.6-0.7-1-1
				c-0.9-0.6-1.9-1.1-2.8-1.4c-1-0.3-2-0.6-3.1-0.8c-2.8-0.4-5.6-0.3-8.3,0.1c-1.5,0.2-2.9,0.5-4.3,0.8c-1.4,0.3-2.8,0.7-4.2,1.2
				c-1.2,0.4-2.4,0.8-3.5,1.3c-1.1,0.5-2.3,1.1-3.4,1.6c-0.6,0.4-1.3,0.7-1.9,1c-0.6,0.3-1.2,0.6-1.9,1c-0.5,0.2-1,0.5-1.4,0.8
				c-0.5,0.5-1.1,0.9-1.8,1.1c-0.6,0.2-1.3,0.5-1.9,0.9c-0.2,0.1-0.5,0.2-0.7,0.1c-0.2,0-0.5-0.1-0.7-0.2c-0.2-0.1-0.4-0.2-0.6-0.3
				c-0.2-0.1-0.4-0.2-0.6-0.4l1.8-3.7c0,0,0.1,0.1,0.3,0.1c0.1,0,0.2,0,0.2-0.1c0.1,0,0.1-0.1,0.2-0.1v-0.1h0.1
				c0.1,0.3,0.3,0.3,0.6,0c0.2,0,0.4-0.1,0.6-0.2c0.2-0.1,0.4-0.2,0.6-0.4h-0.1h0.1l0.5-0.5l0.1-0.1l-0.1,0.1
				c0.1-0.1,0.2-0.2,0.3-0.3c0.1-0.1,0.2-0.2,0.3-0.3h-0.6v-0.1h0.6l-0.1,0.1c0.2-0.2,0.4-0.4,0.6-0.5c0.2-0.2,0.3-0.4,0.5-0.5v-0.1
				h0.7l-0.1,0.1c0.6-0.3,1.3-0.5,1.9-0.8c0.6-0.3,1.3-0.5,1.9-0.8c1-0.4,1.9-0.8,2.8-1.2c0.9-0.4,1.9-0.8,2.9-1.2
				c1.9-0.7,3.9-1.3,5.9-1.7c2-0.4,4.1-0.6,6.1-0.7c2-0.1,3.9,0.1,5.8,0.5c1.9,0.4,3.7,1.2,5.4,2.3C108.8,110,110.8,113,111.7,116.8
				z M68.8,114.2h-0.5l0.5-0.5V114.2z M68.8,113.7v-0.1h0.1L68.8,113.7L68.8,113.7z M68.8,114.3L68.8,114.3L68.8,114.3L68.8,114.3z
				 M69.9,113.7c-0.5,0-0.8,0-1-0.1c0.2-0.2,0.5-0.4,0.7-0.6c0.3-0.2,0.5-0.4,0.9-0.4v0.5L69.9,113.7z M77.8,120.4
				c0.1-0.1,0.1-0.3,0-0.5V120.4z"/>
			<linearGradient id="SVGID_2_" gradientUnits="userSpaceOnUse" x1="114.2811" y1="158.1822" x2="114.2811" y2="112.2419">
				<stop  offset="0" style="stop-color:#FFFFFF"/>
				<stop  offset="1" style="stop-color:#172982"/>
			</linearGradient>
			<path class="st3" d="M102.1,144.8c0.1-0.1,0.2-0.2,0.2-0.3c0-0.1,0.1-0.2,0.2-0.3c0.2-0.1,0.4-0.3,0.5-0.4
				c0.1-0.2,0.2-0.4,0.3-0.6l-0.1,0.1c0.5-0.6,0.8-1.2,1-1.9c0.1-0.6,0.4-1.2,0.8-1.8c0.4-0.6,0.6-1.2,0.8-1.9
				c0-0.2,0.2-0.4,0.5-0.5c0.4-0.2,0.6-0.5,0.8-0.9c0.2-0.3,0.3-0.7,0.5-1.1l-0.1,0.1c0.1-0.1,0.1-0.2,0.1-0.2c0-0.1,0-0.2-0.1-0.4
				c1.1-1.1,1.9-2.2,2.3-3.5c0.2-0.7,0.5-1.3,0.9-1.9c0.4-0.6,0.8-1.2,1.2-1.8c0.9-1.3,1.7-2.6,2.6-3.9c0.9-1.3,1.7-2.6,2.6-3.9
				c0.6-0.9,1.3-1.8,1.9-2.7c0.6-0.9,1.3-1.8,2-2.6c0.7-0.7,1.2-1.3,1.6-1.6c0.4-0.3,0.7-0.5,1.1-0.5c0.3,0,0.7,0.1,1.2,0.3
				c0.5,0.2,1.1,0.5,2.1,0.8c0.2,0.1,0.4,0.2,0.7,0.4c0.2,0.2,0.4,0.3,0.7,0.5c0.6,0.6,0.7,1.2,0.2,1.9c-0.1,0.2-0.2,0.4-0.3,0.6
				c-0.1,0.2-0.3,0.3-0.4,0.5c-1.5,1.6-2.8,3.3-4.1,5c-1.3,1.8-2.5,3.6-3.7,5.4c-0.4,0.6-0.8,1.3-1.3,1.9c-0.5,0.6-0.9,1.2-1.4,1.8
				c-1,1.2-2,2.5-2.9,3.8c-0.9,1.3-1.7,2.7-2.5,4.1c-0.3,0.5-0.6,1-0.9,1.5c-0.3,0.5-0.6,1-0.9,1.5c-0.1,0.2-0.3,0.4-0.4,0.7
				c-0.2,0.2-0.3,0.4-0.5,0.7c-0.5,0.5-0.9,1.1-1.3,1.7c-0.3,0.6-0.7,1.2-0.9,1.9c-0.2,0.4-0.4,0.7-0.5,1.1
				c-0.2,0.3-0.4,0.7-0.6,1.1c-0.3,0.5-0.6,1.1-0.8,1.7c-0.2,0.6-0.3,1.2-0.2,1.9l0.1,0.1l-0.1-0.1c0.5,0,0.9-0.1,1.2-0.5
				c0.6-0.7,1.3-1.4,2.1-2c0.7-0.6,1.5-1.3,2.2-2c0.1-0.1,0.2-0.1,0.3-0.2c0.1,0,0.2,0,0.3,0.1c0.1,0.1,0.2,0.3,0.2,0.4
				c0,0.1,0,0.3-0.1,0.3c-0.4,0.6-0.7,1.3-1,2c-0.3,0.7-0.7,1.3-1.2,1.9c-0.3,0.4-0.5,0.7-0.8,1.1c-0.3,0.4-0.5,0.7-0.7,1.1
				c-0.3,0.5-0.7,1-1.1,1.4c-0.4,0.4-0.8,0.8-1.1,1.3c-0.2,0.2-0.4,0.4-0.7,0.4c-0.3,0.1-0.5,0.1-0.8,0c-0.7-0.1-1.3-0.3-1.6-0.7
				c-0.2-0.2-0.4-0.4-0.6-0.6c-0.2-0.2-0.3-0.4-0.5-0.6c-0.3-0.4-0.4-0.9-0.3-1.5c0-0.2,0.1-0.4,0.1-0.7c0-0.2,0.1-0.4,0.1-0.7
				c0.1-0.7,0-1.3-0.2-1.8c-0.1-0.2-0.2-0.5-0.2-0.8c-0.1-0.3-0.1-0.5-0.2-0.8c-0.1-0.5,0-0.9,0.1-1.2c0.4-0.7,0.7-1.4,1-2.1
				C101.3,146.1,101.7,145.4,102.1,144.8L102.1,144.8z M111.7,127.7v-0.5l-0.1-0.1L111.7,127.7L111.7,127.7z"/>
			<linearGradient id="SVGID_3_" gradientUnits="userSpaceOnUse" x1="128.5439" y1="157.6584" x2="128.5439" y2="133.005">
				<stop  offset="0" style="stop-color:#FFFFFF"/>
				<stop  offset="1" style="stop-color:#172982"/>
			</linearGradient>
			<path class="st4" d="M144.7,134.5c0.6,0.9,0.7,1.7,0.1,2.5c-0.2,0.4-0.5,0.7-0.7,1c-0.2,0.3-0.5,0.6-0.7,0.9
				c-1.3,1.6-2.5,3.1-3.7,4.7c-1.2,1.6-2.3,3.2-3.5,4.8c-0.3,0.5-0.5,0.9-0.8,1.3c-0.2,0.4-0.5,0.8-0.8,1.2
				c-0.5,0.8-0.9,1.6-1.2,2.4c-0.3,0.8-0.4,1.7-0.3,2.6c0,0.1,0,0.3-0.1,0.5c0,0.2-0.2,0.4-0.5,0.7c-0.3,0.2-0.6,0.3-0.9,0.2
				c-0.4-0.1-0.6-0.2-0.8-0.3c-0.5-0.4-0.8-0.8-1.1-1.2c-0.3-0.4-0.5-1-0.6-1.6c-0.1-0.6-0.1-1.3-0.1-1.9c0-0.6,0.2-1.2,0.4-1.8
				c0.4-0.9,0.8-1.8,1.2-2.7c0.4-0.9,0.9-1.7,1.4-2.5c0.3-0.4,0.4-0.6,0.3-0.6c-0.1,0-0.3,0.1-0.6,0.3c-0.3,0.2-0.7,0.5-1.2,0.9
				c-0.5,0.4-1.1,0.8-1.6,1.3c-0.3,0.3-0.6,0.5-0.9,0.8c-0.3,0.3-0.8,0.7-1.5,1.3c-0.4,0.4-0.8,0.8-1.3,1.3c-0.5,0.5-1,0.9-1.5,1.2
				l-2.1,1.4c-0.9,0.9-1.7,1.7-2.5,2.3c-0.8,0.6-1.7,1.2-2.6,1.9c-0.5,0.4-1.1,0.4-1.8,0.1c-0.4-0.2-0.8-0.5-1.1-0.8
				c-0.3-0.3-0.6-0.8-0.8-1.3c-0.1-0.5-0.3-1-0.5-1.5c-0.2-0.5-0.3-1-0.5-1.5c-0.4-1.1-0.3-2.2,0.3-3.2c0.4-0.7,0.8-1.5,1.2-2.2
				c0.4-0.7,0.8-1.4,1.3-2.2c0.8-1.2,1.7-2.4,2.5-3.6c0.9-1.2,1.7-2.4,2.5-3.6c0.6-0.8,1.2-1.7,1.7-2.6c0.3-0.6,0.7-0.8,1.4-0.5
				c0.3,0.1,0.6,0.2,0.9,0.2c0.3,0.1,0.6,0.1,0.9,0.2c0.9,0.3,1.4,0.8,1.5,1.6c0.1,0.8,0,1.5-0.4,2.1c-1.4,1.9-2.7,3.7-4.1,5.6
				c-1.3,1.9-2.7,3.7-4,5.7c-0.4,0.5-0.8,1.1-1.2,1.8c-0.4,0.6-0.6,1.3-0.8,2c0,0.1,0,0.2,0.1,0.2c0.1,0.1,0.2,0.1,0.2,0.2h0.1
				c0.1,0,0.2,0,0.2-0.1c0.1,0,0.2-0.1,0.2-0.1c0.1,0,0.1-0.1,0.2-0.1c0.5-0.4,1-0.8,1.5-1.2c0.5-0.4,1-0.8,1.5-1.2
				c1.2-1,2.4-2,3.5-2.9c1.1-0.9,2.3-1.9,3.5-2.8c0.2-0.1,0.5-0.4,0.9-0.7c0.4-0.3,0.8-0.7,1.3-1.1c0.5-0.4,1.1-0.8,1.6-1.3
				c0.6-0.5,1.2-0.9,1.7-1.4c0.4-0.3,0.7-0.6,1-0.9c0.3-0.3,0.6-0.6,1-0.8c0.9-0.5,1.7-1.2,2.5-1.9c0.7-0.7,1.5-1.4,2.3-2
				c0.5-0.7,1.2-1.4,2-2.1c0.1-0.2,0.3-0.4,0.4-0.6c0.2-0.2,0.4-0.2,0.6-0.2c0.7,0,1.4,0.3,1.9,0.8
				C144.4,134,144.6,134.2,144.7,134.5z"/>
			<linearGradient id="SVGID_4_" gradientUnits="userSpaceOnUse" x1="156.4917" y1="157.78" x2="156.4917" y2="129.6685">
				<stop  offset="0" style="stop-color:#FFFFFF"/>
				<stop  offset="1" style="stop-color:#172982"/>
			</linearGradient>
			<path class="st5" d="M149.1,157.3c-0.3-0.1-0.5-0.3-0.8-0.4c-0.3-0.1-0.5-0.3-0.8-0.5c-0.8-0.4-1.5-0.9-2.1-1.5
				c-0.6-0.6-1.1-1.4-1.5-2.3c-0.1-0.2-0.2-0.4-0.3-0.6c-0.1-0.2-0.2-0.4-0.3-0.6c-0.6-1.2-0.9-2.5-1-3.7c0-0.1,0-0.2,0-0.4
				c0-0.2,0-0.4-0.1-0.6c-0.1-1.1,0-2.1,0.2-3.1c0.3-1,0.6-1.9,0.9-2.6c0.4-0.9,0.9-1.7,1.4-2.5c0,0-0.1,0.1-0.1,0.1
				c0,0-0.1,0.1-0.1,0.2c0.3-0.4,0.5-0.7,0.8-1.1c0.3-0.4,0.5-0.8,0.7-1.1c0.6-1.1,1.4-2,2.2-2.9c0.8-0.9,1.7-1.7,2.6-2.5
				c0.5-0.4,1-0.7,1.6-0.9c0.6-0.2,1.2-0.4,1.8-0.5c0.3-0.1,0.6-0.1,0.8,0.1c0.8,0.3,1.6,0.6,2.3,0.9c0.8,0.3,1.5,0.7,2.2,1.2
				c1,0.6,1.6,1.3,1.8,2.1c0.3,0.8,0.2,1.8-0.2,3c-0.1,0.5-0.3,1-0.6,1.3c-0.3,0.4-0.5,0.8-0.8,1.3c-0.6,1.1-1.4,2.1-2.3,2.9
				c-0.9,0.8-1.9,1.6-3,2.2c-0.9,0.5-1.8,0.8-2.7,0.8c-0.2,0-0.5-0.1-0.7,0c-0.2,0-0.5,0-0.7,0c-0.5,0-0.8,0.2-1,0.6
				c-0.5,0.9-0.9,1.8-1.2,2.7c-0.3,0.9-0.5,1.8-0.5,2.8c0,0.5,0.1,1,0.3,1.6c0.3,0.7,0.8,0.9,1.5,0.6c0.6-0.2,1.2-0.5,1.8-0.9
				c0.6-0.4,1.1-0.7,1.7-1c0.2-0.2,0.5-0.4,0.7-0.5c0.2-0.2,0.5-0.3,0.8-0.5c0.4-0.2,0.7-0.4,0.9-0.7c0.3-0.3,0.5-0.5,0.7-0.7
				c0.6-0.6,1.3-1.3,2-1.9c0.7-0.6,1.4-1.2,2.1-1.9c0.5-0.5,1.1-0.9,1.6-1.3c0.5-0.4,1.1-0.9,1.6-1.4c0,0,0.4-0.3,1-0.9
				c0.6-0.5,1.3-1.1,2-1.8c0.7-0.7,1.4-1.3,2-1.8c0.6-0.5,1-0.8,1.1-0.9l1,1.4c0.1,0.2-0.1,0.8-0.8,1.6c-0.7,0.8-1.5,1.8-2.4,2.8
				c-1,1.1-1.9,2.1-3,3.2c-1,1.1-1.8,2-2.3,2.7c-0.5,0.7-1,1.3-1.6,1.8c-0.5,0.5-0.9,0.8-1,0.9c-0.5,0.5-1.1,1-1.7,1.5
				c-0.6,0.5-1.1,1-1.6,1.6c-0.8,0.9-1.7,1.5-2.8,2c-0.7,0.3-1.5,0.4-2.2,0.4C150.6,157.8,149.9,157.6,149.1,157.3z M153.6,139.5
				c-0.1,0.3,0,0.4,0.2,0.3c0.1,0,0.1-0.1,0.1-0.2v-0.4L153.6,139.5z M156.9,135.5c-0.6,0.5-1.2,1-1.7,1.6c-0.5,0.6-0.9,1.2-1.2,2
				c0.2,0.1,0.4,0.1,0.4,0.1c0.7-0.4,1.4-0.8,1.9-1.3c0.5-0.5,1-1.2,1.2-2c0-0.1,0-0.2,0-0.2c-0.1-0.1-0.1-0.1-0.2-0.2
				C157.2,135.3,157,135.3,156.9,135.5z"/>
			<linearGradient id="SVGID_5_" gradientUnits="userSpaceOnUse" x1="201.4825" y1="164.8025" x2="201.4825" y2="105.6455">
				<stop  offset="0" style="stop-color:#FFFFFF"/>
				<stop  offset="1" style="stop-color:#172982"/>
			</linearGradient>
			<path class="st6" d="M225.1,113.7c0.2,0.8,0,1.6-0.6,2.4c-0.5,0.7-1.1,1.3-1.6,1.9c-0.8,0.7-1.6,1.3-2.5,1.8
				c-0.9,0.5-1.8,0.9-2.8,1.2c-0.5,0.1-1,0.2-1.5,0.2c-0.5,0-1-0.1-1.5-0.3c-0.3-0.1-0.6-0.3-0.9-0.4c-0.3-0.1-0.6-0.3-0.9-0.4
				c0.2-0.3,0.3-0.5,0.3-0.5c0.9-0.5,1.7-1,2.4-1.6c0.7-0.6,1.5-1.2,2.2-1.9c0.5-0.4,0.9-0.9,1.3-1.3c0.4-0.5,0.7-1,1-1.5
				c0.2-0.4,0.3-0.7,0.1-1c-0.2-0.3-0.5-0.4-0.8-0.4c-0.4,0-0.8,0-1.3,0c-0.4,0-0.9,0-1.3,0.1c-1.9,0.2-3.7,0.6-5.5,1.1
				c-1.8,0.5-3.5,1-5.3,1.7c-0.2,0.1-0.5,0.2-0.8,0.3c-0.3,0.1-0.5,0.2-0.8,0.3c-1.6,0.6-3.2,1.3-4.7,2.1c-1.5,0.8-3,1.7-4.5,2.5
				c-0.5,0.3-0.9,0.5-1.3,0.8c-0.4,0.3-0.8,0.5-1.2,0.8c-1.2,0.8-2.3,1.8-3.3,2.8c-1,1.1-2,2.1-2.9,3.2c-0.4,0.4-0.7,0.9-0.9,1.4
				c-0.2,0.5-0.5,1-0.7,1.5c-0.5,1.3-0.2,2.3,0.9,3c1.1,0.7,2.2,1.4,3.2,1.9c1.6,0.8,3.1,1.5,4.6,2.1c1.7,0.7,3.5,1.4,5.2,2.1
				c1.7,0.7,3.4,1.4,5.2,2c1,0.4,1.9,0.8,2.8,1.3c0.9,0.5,1.8,1.1,2.6,1.7c0.5,0.5,1,0.8,1.6,1.2c1.1,0.7,1.9,1.6,2.5,2.6
				c0.6,1,1.1,2.1,1.6,3.2c0.5,1.2,0.2,2.4-0.7,3.4c-0.2,0.3-0.5,0.6-0.8,0.9c-0.3,0.3-0.6,0.6-1,0.8c-0.9,0.6-1.8,1.2-2.7,1.8
				c-0.9,0.5-1.9,1-2.8,1.5c-1.7,0.8-3.5,1.6-5.3,2.2c-1.8,0.6-3.6,1.2-5.5,1.8c-1.1,0.3-2.1,0.5-3.3,0.7c-1.1,0.1-2.2,0.2-3.3,0.1
				c-1.6-0.1-3.1-0.4-4.5-0.9c-1.4-0.5-2.7-1.4-3.8-2.6c-0.9-1-1.6-2-2.2-3.2c-0.5-1.2-0.9-2.4-1.1-3.7c0-0.5,0.2-0.9,0.7-1.2
				c0.3-0.1,0.6-0.3,0.9-0.4c0.3-0.1,0.6-0.2,0.9-0.3c0.9,0.5,1.3,1.3,1.2,2.3c0,0.3-0.1,0.6-0.1,0.9c0,0.3,0,0.6,0,0.9
				c0,0.4,0.1,0.8,0.3,1.1c0.2,0.3,0.5,0.6,0.8,0.8c0.2,0.1,0.4,0.2,0.5,0.3c0.2,0.1,0.3,0.2,0.5,0.2c0.9,0.2,1.8,0.5,2.7,0.7
				c0.9,0.2,1.8,0.3,2.7,0.1c0.4-0.1,0.8-0.1,1.3-0.1c0.4,0,0.9,0,1.3,0c1.1-0.1,2.2-0.4,3.2-0.8c1.5-0.6,2.9-1.3,4.3-2
				c1.4-0.7,2.8-1.4,4.3-2.1c0.6-0.3,1.2-0.6,1.7-0.9c0.6-0.3,1.1-0.7,1.6-1c0.1,0,0.3-0.2,0.3-0.4c0.1-0.5,0.5-0.9,1-1.4
				c0.3-0.2,0.5-0.5,0.8-0.8c0.4-0.4,0.5-0.8,0.4-1.3c-0.1-0.5-0.3-0.8-0.8-1.1c-0.6-0.3-1.3-0.6-1.9-0.9c-0.6-0.3-1.2-0.6-1.9-0.9
				c-1.3-0.5-2.6-1-3.8-1.4c-1.3-0.4-2.5-0.9-3.8-1.4c-1-0.4-2-0.7-3-1.1c-1-0.4-2-0.7-3.1-1.1c-1.4-0.5-2.7-1.2-3.8-2.1
				c-1.1-0.9-2.2-1.9-3.2-3c-0.4-0.4-0.7-0.8-1-1.3c-0.3-0.5-0.5-1-0.7-1.5c-0.2-0.6-0.4-1.2-0.6-1.7c-0.2-0.5-0.4-1.1-0.6-1.7
				c-0.3-0.8-0.4-1.5-0.3-2.2c0.1-0.7,0.3-1.4,0.5-2.1c0-0.2,0.1-0.4,0.2-0.5c0.1-0.1,0.2-0.3,0.3-0.5c0.7-1,1.5-1.9,2.3-2.8
				c0.8-0.9,1.7-1.7,2.8-2.4c0.9-0.6,1.7-1.2,2.6-1.8c0.9-0.6,1.8-1.2,2.7-1.8c0.4-0.2,0.7-0.4,1.1-0.5c0.4-0.1,0.8-0.3,1.1-0.4
				c0.4-0.5,0.9-0.9,1.4-1.2c0.5-0.3,1-0.5,1.5-0.8c0.2-0.1,0.5-0.3,0.8-0.3c0.3-0.1,0.5-0.2,0.8-0.3c1.8-1,3.6-1.9,5.5-2.5
				c1.9-0.7,3.8-1.3,5.7-1.8c0.4-0.1,0.8-0.2,1.2-0.3c0.4-0.1,0.8-0.2,1.2-0.3c0.5-0.1,1-0.2,1.5-0.4c0.5-0.2,0.9-0.4,1.3-0.8
				c0.2-0.2,0.5-0.3,0.8-0.3c0.3,0,0.6,0,0.9,0.1c0.6,0.1,1.3,0.5,2,1c0.5,0.4,1,0.7,1.5,1.1c0.5,0.3,1,0.7,1.5,1.1
				c0.8,0.6,1.4,1.4,1.9,2.2C224.5,111.9,224.8,112.8,225.1,113.7z M193,116.5l-0.1-0.1L193,116.5L193,116.5z M194.7,115.1
				c0.2,0,0.4-0.1,0.6-0.1c0.2,0,0.4-0.1,0.5-0.2c-0.2,0-0.4-0.1-0.6-0.1c-0.2,0-0.4,0-0.6-0.1C194.6,114.9,194.6,115,194.7,115.1z
				 M196.9,114.2c-0.4,0-0.7,0.2-1,0.5c0.2-0.1,0.3-0.2,0.5-0.3C196.6,114.4,196.7,114.3,196.9,114.2z M197.2,114.1
				c0.4-0.2,0.7-0.3,1-0.3C197.8,113.7,197.4,113.8,197.2,114.1z"/>
			<linearGradient id="SVGID_6_" gradientUnits="userSpaceOnUse" x1="231.0483" y1="157.78" x2="231.0483" y2="129.6685">
				<stop  offset="0" style="stop-color:#FFFFFF"/>
				<stop  offset="1" style="stop-color:#172982"/>
			</linearGradient>
			<path class="st7" d="M223.7,157.3c-0.3-0.1-0.5-0.3-0.8-0.4c-0.3-0.1-0.5-0.3-0.8-0.5c-0.8-0.4-1.5-0.9-2.1-1.5
				c-0.6-0.6-1.1-1.4-1.5-2.3c-0.1-0.2-0.2-0.4-0.3-0.6c-0.1-0.2-0.2-0.4-0.3-0.6c-0.6-1.2-0.9-2.5-1-3.7c0-0.1,0-0.2,0-0.4
				c0-0.2,0-0.4-0.1-0.6c-0.1-1.1,0-2.1,0.2-3.1c0.3-1,0.6-1.9,0.9-2.6c0.4-0.9,0.9-1.7,1.4-2.5c0,0-0.1,0.1-0.1,0.1
				c0,0-0.1,0.1-0.1,0.2c0.3-0.4,0.5-0.7,0.8-1.1c0.3-0.4,0.5-0.8,0.7-1.1c0.6-1.1,1.4-2,2.2-2.9c0.8-0.9,1.7-1.7,2.6-2.5
				c0.5-0.4,1-0.7,1.6-0.9c0.6-0.2,1.2-0.4,1.8-0.5c0.3-0.1,0.6-0.1,0.8,0.1c0.8,0.3,1.6,0.6,2.3,0.9c0.8,0.3,1.5,0.7,2.2,1.2
				c1,0.6,1.6,1.3,1.8,2.1c0.3,0.8,0.2,1.8-0.2,3c-0.1,0.5-0.3,1-0.6,1.3c-0.3,0.4-0.5,0.8-0.8,1.3c-0.6,1.1-1.4,2.1-2.3,2.9
				c-0.9,0.8-1.9,1.6-3,2.2c-0.9,0.5-1.8,0.8-2.7,0.8c-0.2,0-0.5-0.1-0.7,0c-0.2,0-0.5,0-0.7,0c-0.5,0-0.8,0.2-1,0.6
				c-0.5,0.9-0.9,1.8-1.2,2.7c-0.3,0.9-0.5,1.8-0.5,2.8c0,0.5,0.1,1,0.3,1.6c0.3,0.7,0.8,0.9,1.5,0.6c0.6-0.2,1.2-0.5,1.8-0.9
				c0.6-0.4,1.1-0.7,1.7-1c0.2-0.2,0.5-0.4,0.7-0.5c0.3-0.2,0.5-0.3,0.8-0.5c0.4-0.2,0.7-0.4,0.9-0.7c0.3-0.3,0.5-0.5,0.7-0.7
				c0.6-0.6,1.3-1.3,2-1.9c0.7-0.6,1.4-1.2,2.1-1.9c0.5-0.5,1.1-0.9,1.6-1.3c0.5-0.4,1.1-0.9,1.6-1.4c0,0,0.4-0.3,1-0.9
				c0.6-0.5,1.3-1.1,2-1.8c0.7-0.7,1.4-1.3,2-1.8c0.6-0.5,1-0.8,1.1-0.9l1,1.4c0.1,0.2-0.1,0.8-0.8,1.6c-0.7,0.8-1.5,1.8-2.4,2.8
				c-1,1.1-1.9,2.1-3,3.2c-1,1.1-1.8,2-2.3,2.7c-0.5,0.7-1,1.3-1.6,1.8c-0.5,0.5-0.9,0.8-1,0.9c-0.5,0.5-1.1,1-1.7,1.5
				c-0.6,0.5-1.1,1-1.6,1.6c-0.8,0.9-1.7,1.5-2.8,2c-0.7,0.3-1.5,0.4-2.2,0.4C225.2,157.8,224.4,157.6,223.7,157.3z M228.2,139.5
				c-0.1,0.3,0,0.4,0.2,0.3c0.1,0,0.1-0.1,0.1-0.2v-0.4L228.2,139.5z M231.5,135.5c-0.6,0.5-1.2,1-1.7,1.6c-0.5,0.6-0.9,1.2-1.2,2
				c0.2,0.1,0.4,0.1,0.4,0.1c0.7-0.4,1.4-0.8,1.9-1.3c0.6-0.5,1-1.2,1.2-2c0-0.1,0-0.2,0-0.2c-0.1-0.1-0.1-0.1-0.2-0.2
				C231.7,135.3,231.6,135.3,231.5,135.5z"/>
			<linearGradient id="SVGID_7_" gradientUnits="userSpaceOnUse" x1="257.2381" y1="159.3479" x2="257.2381" y2="129.3625">
				<stop  offset="0" style="stop-color:#FFFFFF"/>
				<stop  offset="1" style="stop-color:#172982"/>
			</linearGradient>
			<path class="st8" d="M270.9,144.6c-1.1,0.9-2,1.9-3,2.9c-0.9,1-1.9,2-2.8,2.9l-3.3,3.5c-0.5,0.5-1,0.5-1.7,0.3
				c-1.3-0.5-2.3-1.5-2.8-2.7c-0.1-0.2-0.2-0.5-0.3-0.7c-0.1-0.3-0.2-0.5-0.4-0.7c-0.3-0.5-0.4-1.1-0.4-1.8c0-0.3,0-0.5,0.1-0.8
				c0-0.2,0.2-0.5,0.4-0.7c0.8-0.8,1.1-1.6,0.8-2.6c-0.1,0.2-0.3,0.4-0.4,0.5c-0.1,0.2-0.3,0.3-0.4,0.4c-0.4,0.3-0.8,0.6-1.1,0.9
				c-0.3,0.3-0.7,0.7-1,1c-0.9,1.1-1.8,2.1-2.8,3.1c-0.9,1-1.9,2-2.8,3.1c-0.4,0.4-0.7,0.7-1.1,1.1c-0.4,0.4-0.8,0.7-1.1,1.1
				c-0.3,0.2-0.5,0.5-0.8,0.7c-0.3,0.3-0.5,0.5-0.7,0.8c-0.4,0.5-0.8,0.8-1.3,1.2c-0.5,0.3-1,0.6-1.5,0.9c-1.2,0.5-2.3,0.6-3.4,0.2
				c-0.5-0.2-0.9-0.4-1.1-0.7c-0.2-0.5-0.5-0.9-0.8-1.3c-0.3-0.3-0.6-0.7-0.9-1.1c-0.2-0.2-0.3-0.5-0.5-0.8
				c-0.1-0.3-0.3-0.5-0.3-0.8c0-0.4,0-0.7,0.1-0.9c0.1-0.3,0.2-0.5,0.3-0.7c0.6-1.3,1.2-2.6,1.9-3.8c0.7-1.3,1.4-2.5,2.2-3.7
				c0.2-0.2,0.4-0.5,0.5-0.7c0.2-0.3,0.2-0.6,0.2-0.9c1-0.7,1.6-1.6,1.9-2.7c0.1-0.4,0.2-0.8,0.4-1.1c0.2-0.3,0.4-0.7,0.7-1
				c2.1-2.8,4.5-5.4,7.1-7.8c0.3-0.3,0.6-0.5,1-0.8c0.3-0.2,0.7-0.4,1-0.5c0.5-0.2,1-0.3,1.4-0.3c0.5,0,0.9,0,1.4,0.1
				c0.5,0.2,0.9,0.3,1.4,0.4c0.5,0.1,0.9,0.2,1.4,0.4c1.4,0.4,2.8,1,4.1,1.9c0.5,0.4,1,0.3,1.4-0.1l1.9-1.9c0.5-0.5,1-0.7,1.6-0.5
				c0.3,0.1,0.6,0.2,0.9,0.2c0.3,0.1,0.6,0.1,0.9,0.2c0.7,0.1,1.4,0.5,2,1.2c0.2,0.2,0.3,0.4,0.3,0.7c0,0.3-0.1,0.5-0.2,0.7
				l-0.2,0.2c-1.1,0.9-1.9,1.9-2.7,3.1c-0.7,1.1-1.5,2.3-2.2,3.5c-0.8,1.4-1.5,2.8-2.3,4.2c-0.8,1.4-1.5,2.9-2.1,4.3
				c-0.2,0.5-0.4,1-0.4,1.5c-0.1,0.2,0,0.3,0.2,0.4c0.1,0.1,0.3,0.1,0.5,0c0.4-0.2,0.6-0.5,0.8-0.7c0.5-0.5,1.1-1.1,1.6-1.7
				c0.6-0.6,1.1-1.2,1.6-1.8l4.7-4.9c0.5-0.6,1.1-1.2,1.7-1.8c0.6-0.6,1.1-1.1,1.7-1.7c0.1-0.1,0.3-0.3,0.6-0.6
				c0.5-0.5,0.9-1.1,1.3-1.7c0.4-0.6,0.9-1.2,1.5-1.7l1.4,2.1c0,0-0.2,0.2-0.5,0.5c-0.3,0.3-0.7,0.8-1.1,1.2c-0.4,0.5-0.9,1-1.3,1.6
				c-0.5,0.6-0.9,1.1-1.3,1.6c-0.4,0.5-0.8,0.9-1.1,1.2c-0.3,0.3-0.4,0.5-0.4,0.6c-0.4,0.5-0.8,0.9-1.2,1.3
				C271.8,143.9,271.3,144.3,270.9,144.6z M260.2,135.9c0.1-0.1,0.2-0.3,0.2-0.4c0-0.2,0.1-0.3,0.2-0.5c-0.4-0.3-0.7-0.5-1.1-0.6
				c-0.4-0.1-0.8-0.1-1.2,0c-1.1,0.2-2,0.7-2.8,1.4c-0.5,0.5-1,0.9-1.5,1.3c-0.5,0.4-0.9,0.9-1.4,1.4c-0.6,0.7-1.3,1.4-1.9,2.1
				c-0.6,0.7-1.2,1.4-1.9,2.1c-2.4,2.6-4.6,5.5-6.4,8.7c-0.2,0.4-0.4,0.7-0.6,1.1c-0.2,0.4-0.4,0.8-0.8,1.1
				c-0.1,0.2-0.2,0.4-0.2,0.6c-0.1,0.2-0.1,0.4-0.2,0.7c0,0.1,0,0.2,0.1,0.2c0,0,0.1,0.1,0.1,0.2c0.1,0.1,0.2,0.1,0.3,0
				c0.1-0.1,0.3-0.2,0.4-0.2c0.2-0.1,0.3-0.1,0.4-0.2c1.2-1.2,2.5-2.4,3.7-3.6c1.2-1.2,2.4-2.5,3.5-3.8c0.7-0.8,1.4-1.6,2.1-2.3
				c0.7-0.8,1.5-1.5,2.3-2.2c0.4-0.3,0.7-0.6,1-1c0.4-0.6,0.9-1.2,1.4-1.7c0.5-0.5,1.1-1,1.6-1.6c0.5-0.4,0.9-0.8,1.3-1.3
				C259.3,136.8,259.8,136.4,260.2,135.9z M257.4,144.1l0.1,0.1C257.5,144.2,257.5,144.1,257.4,144.1z"/>
		</g>
	</g>
	<g>
		<linearGradient id="SVGID_8_" gradientUnits="userSpaceOnUse" x1="131.914" y1="96.5647" x2="131.914" y2="45.796">
			<stop  offset="0" style="stop-color:#FFFFFF"/>
			<stop  offset="1" style="stop-color:#172982"/>
		</linearGradient>
		<path class="st9" d="M106,91.9c2.5,1.7,5.5,3.2,8.9,2.6c1.7-0.3,3.7-0.6,5.6-1.4c1.4-0.6,2.3-1.4,3.3-2.2c0.3-0.3,0.7-0.5,1-0.8
			c0.3-0.3,0.5-0.7,0.8-0.9c0.7-0.4,1.9-0.3,2.1,0.3c0.2,0.5-1,1.4-1.5,1.8c-1.9,1.6-4.2,3.1-6.9,4.1c-5.3,1.9-9.6,1.2-13.2-0.8
			c-2.9-1.6-5.5-5.2-7-9.4c-0.2-0.7-0.4-1.3-0.6-2.1c-0.2-0.8,0-1.7-0.4-2.4c-0.2-0.4-0.5-0.7-0.7-1c-1-1.4-2-3.2-2.4-5.4
			c-0.6-2.9-0.6-5.8-0.1-8.2c0.3-1.2,0.7-2.3,1.1-3.4c0.4-1.2,1-2.1,1.6-3.1c0.7-1.2,1.4-2.4,2.2-3.5c0.8-1.1,1.7-2.2,2.6-3.3
			c2.5-2.8,5.2-5.3,9.8-6.3c4.1-0.9,7-0.6,9.9,0.3c0.9,0.3,1.8,0.7,2.7,0.8c0.8,0.1,1.7-0.2,2.6-0.3c2.7-0.3,5.3-0.6,7.7-0.6
			c6.7,0,12.5,1.3,18.8,2.4c3.2,0.5,6.3,1.1,9.7,0.7c2.1-0.3,3.8-1.4,5.8-1.7c-0.3,0.7-1.1,0.9-1.8,1.2c-1.6,0.7-3.6,1.5-5.3,1.7
			c-2.6,0.4-5.2-0.1-7.6-0.4c-2.5-0.3-4.9-0.8-7.4-1c-2.4-0.3-5-0.5-7.5-0.8c-3.8-0.4-7.5-1.1-11.7,0.4c5,2.9,10.4,5,15.8,7
			c4.1,1.5,8.3,2.9,12.7,3.5c1.5,0.2,3,0.2,4.6,0.6c-1.6,0.5-3.1,0.2-4.5,0.1c-0.2,0-0.1-0.6-0.3-0.4c-0.1,0.1,0.1,0.4-0.1,0.5
			c-3.1-0.4-6-0.3-8.7-1.1c-2.7-0.7-5.3-1.8-7.9-2.8c-3.7-1.5-7.7-3.2-11.6-4.8c-2-0.8-3.4-1.9-5.9-1.2c-3,0.9-5.2,2.6-7.5,3.9
			c-1.3,0.8-2.5,1.8-3.6,2.8c-2.2,1.9-4.1,4.1-5.6,6.6c-1.4,2.3-3,5-3.5,7.9c-0.3,1.4-0.7,2.8-1,4.4c-0.2,1-0.7,3.8-0.3,4.9
			c0.2,0.6,1,1.5,1.6,2.2c3.8,4.6,9.5,7.7,15.5,6.9c2.1-0.3,3.5-1.9,5.1-0.9c-0.7,1-1.9,1.6-3.2,2.1c-4.2,1.5-8.3,0.5-11.3-0.9
			c-2.3-1-3.6-2.3-5.3-4.1c-0.9-0.9-1.8-1.8-2.7-2.6C101.1,87.3,103.3,90.1,106,91.9z M103.9,63.1 M104,62.8
			c3.7-5.6,7.8-10.9,15.4-13.9c-2.6-1.3-5.9-0.7-9.3,0.7c-0.4,0.2-0.7,0.3-1.1,0.5c-3.9,2.2-7.5,6.9-9.7,9.8
			C99.1,60,99,60.3,99,60.5c-0.3,0.1-0.1,0.4-0.5,0.4c-0.8,2.6-2.8,5.2-2.6,8.5c0,1,0.1,2.1,0.3,3c0.3,2,1.3,3.7,2.2,5.1
			c0.3-0.6,0.3-1.2,0.5-1.8c0.9-4.2,2.2-8.3,4.4-11.7"/>
		<linearGradient id="SVGID_9_" gradientUnits="userSpaceOnUse" x1="135.364" y1="88.1879" x2="135.364" y2="69.0178">
			<stop  offset="0" style="stop-color:#FFFFFF"/>
			<stop  offset="1" style="stop-color:#172982"/>
		</linearGradient>
		<path class="st10" d="M122.6,82.6c1.8-0.8,3.4-2.1,5.1-3.2c1.7-1.1,3.2-2.3,4.9-3.4c1.7-1.1,3.4-2.2,5.2-3.2
			c1.8-1.1,3.7-2.1,5.8-2.8c2.1-0.7,4.4-1.3,5.9-0.7c0.7,0.3,1.6,1,2.5,1.6c1.7,1.1,3.1,2.3,4.4,4c0.6,0.7,1.6,2.1,1.7,3.2
			c0.1,1.2-1.1,3-1.8,3.8c-1,1.2-2,2.2-3.1,3c-4.7,3.4-11,3.2-15.9,3.2c-2.1,0-4.3,0.1-6.3,0.1c-3.7,0-7.4-0.1-10.6-0.8
			c-0.5-0.1-1,0-1.4-0.5c1.4-0.4,3.7-0.8,4.8-1.6c-3.4,0.7-6.8,1-9.8,1c-0.4,0-0.9,0.1-1.3-0.1C116.1,84.8,119.5,84,122.6,82.6z
			 M131.5,80c-0.7,0.1-1.6,1-1.6,1.8c0.1,1.3,1.1,1.8,2,1.6C133.4,83,134,79.5,131.5,80z"/>
		<linearGradient id="SVGID_10_" gradientUnits="userSpaceOnUse" x1="171.9345" y1="91.2331" x2="171.9345" y2="69.2448">
			<stop  offset="0" style="stop-color:#FFFFFF"/>
			<stop  offset="1" style="stop-color:#172982"/>
		</linearGradient>
		<path class="st11" d="M166.1,70.5c0.1,1,1,1.8,1.6,2.7c0.6,0.9,1.3,1.9,1.7,2.9c0.7,1.8,0.1,2.8-0.4,4c-1.2,1.3-2.4,2.6-3.6,3.9
			c-1.1,1.3-2.3,2.6-3.1,4.1c0.3,1.9,2.4,2.1,3.6,2.5c1.2,0.3,2.7,0.9,3.9,0.6c1.1-0.3,2.3-1.8,2.9-2.4c0.4-0.4,0.9-0.9,1.2-1.4
			c0.4-0.5,0.8-1,0.9-1.6c1.1-0.7,1.7-1.7,2.8-2.5c0.5-0.3,1.1-0.8,1.6-1.1c0.6-0.3,1.4-0.5,1.8-0.9c1.5-1.5-0.5-5.3-1.8-7
			c-0.9-1.1-2-1.9-3.1-2.6c-2.5-1.6-5-2.8-8-2.2C167.4,69.5,166.5,69.8,166.1,70.5z"/>
		<linearGradient id="SVGID_11_" gradientUnits="userSpaceOnUse" x1="159.8171" y1="78.2684" x2="159.8171" y2="77.938">
			<stop  offset="0" style="stop-color:#FFFFFF"/>
			<stop  offset="1" style="stop-color:#172982"/>
		</linearGradient>
		<path class="st12" d="M159.6,78c0,0.2,0.2,0.1,0.3,0.3c0.1,0,0.1-0.2,0-0.3C159.9,77.9,159.8,77.9,159.6,78z"/>
		<linearGradient id="SVGID_12_" gradientUnits="userSpaceOnUse" x1="164.2254" y1="80.432" x2="164.2254" y2="79.9135">
			<stop  offset="0" style="stop-color:#FFFFFF"/>
			<stop  offset="1" style="stop-color:#172982"/>
		</linearGradient>
		<path class="st13" d="M164.3,79.9c-0.1,0.2-0.3,0.3-0.2,0.5c0.1,0,0.2,0,0.3,0C164.4,80.3,164.4,80.1,164.3,79.9z"/>
		<linearGradient id="SVGID_13_" gradientUnits="userSpaceOnUse" x1="128.6608" y1="106.4279" x2="128.6608" y2="89.1157">
			<stop  offset="0" style="stop-color:#FFFFFF"/>
			<stop  offset="1" style="stop-color:#172982"/>
		</linearGradient>
		<path class="st14" d="M122.3,106.4c0.6-1.7,0.9-3.2,1.5-4.8c0.2-0.5,0.4-1,0.6-1.5c1.1-1.9,3.9-3.5,5.7-4.9
			c2.1-1.6,3.6-3.5,4.9-5.4c-0.9-1.8-2.3,0.4-3.2,1.2c-2,1.9-4.1,3.6-6,5.5c-2.1,2-2.9,4.2-3.5,7.1
			C122.3,104.5,122,105.5,122.3,106.4z"/>
		<linearGradient id="SVGID_14_" gradientUnits="userSpaceOnUse" x1="132.8592" y1="107.1208" x2="132.8592" y2="88.8505">
			<stop  offset="0" style="stop-color:#FFFFFF"/>
			<stop  offset="1" style="stop-color:#172982"/>
		</linearGradient>
		<path class="st15" d="M133.6,96.8c-1.8,1.5-3.4,3-4.9,4.7c-0.5,1-1.2,1.9-1.7,2.8c-0.6,0.9-1,2-1.7,2.8c0.1-1.6,1-2.5,1.5-3.8
			c1.1-2.8,3.1-4.7,5.2-6.8c0.1-0.1,0.2-0.1,0.4-0.2c0.4-0.9,1.2-1.2,1.9-1.8c1.7-1.7,3-3.5,4-5.5c0.7-0.4,2,0.1,2.1,0.6
			c0.1,0.5-0.8,1.2-1.2,1.7c-1.9,1.8-3.6,3.9-5.3,5.2"/>
		<linearGradient id="SVGID_15_" gradientUnits="userSpaceOnUse" x1="143.3534" y1="112.2379" x2="143.3534" y2="87.1766">
			<stop  offset="0" style="stop-color:#FFFFFF"/>
			<stop  offset="1" style="stop-color:#172982"/>
		</linearGradient>
		<path class="st16" d="M135.3,112.2c0.4-0.4,0.3-1,0.3-1.5c0.2-1.6,0.7-3,1.1-4.5c0.5-2,1.2-3.9,2.8-5.2c0.7-0.5,1.5-0.8,2.1-1.3
			c1.8-1.4,3.3-3.1,4.8-4.9c1.8-2.4,3.7-4.7,5-7.4c-0.5-0.5-1.5-0.1-1.9,0.4c-0.7,0.9-1.2,2-1.9,3c-2,2.9-4.1,5.8-7.3,7.9
			c-1.2,0.8-2.1,1.4-2.8,2.4C135.7,103.9,134.9,108,135.3,112.2z"/>
		<linearGradient id="SVGID_16_" gradientUnits="userSpaceOnUse" x1="156.3259" y1="101.3831" x2="156.3259" y2="86.625">
			<stop  offset="0" style="stop-color:#FFFFFF"/>
			<stop  offset="1" style="stop-color:#172982"/>
		</linearGradient>
		<path class="st17" d="M160.5,101.4c-1.1-3.8-3.9-6.4-5.6-9.7c-0.2-0.5-0.6-1.3-0.7-1.8c-0.1-0.6,0.7-2.1,0.4-2.8
			c-0.3-0.6-1.2-0.6-1.7-0.1c-0.5,0.6-1.1,2.5-0.8,3.4c0.1,0.5,0.6,1.1,0.9,1.6c1.8,3.3,4.4,4.8,6.3,8.1
			C159.7,100.5,159.9,101.3,160.5,101.4z"/>
		<linearGradient id="SVGID_17_" gradientUnits="userSpaceOnUse" x1="160.0681" y1="102.5306" x2="160.0681" y2="88.0676">
			<stop  offset="0" style="stop-color:#FFFFFF"/>
			<stop  offset="1" style="stop-color:#172982"/>
		</linearGradient>
		<path class="st18" d="M163.4,102.5c0.2-0.6-0.1-1.5-0.3-2.1c-0.5-1.8-2-3.2-2.7-4.5c-0.4-1.4-1.4-2.6-1.7-3.9
			c-0.4-1.3,0.1-2.3,0-3.5c-0.6-0.1-1-0.6-1.4-0.5c-0.7,0.2-0.6,2.7-0.5,3.4c0.2,0.9,0.9,1.6,1.4,2.4c1.1,1.4,1.9,2.9,2.9,4.4
			c0.5,0.8,1.1,1.5,1.4,2.2C162.8,101.2,162.7,102.1,163.4,102.5z"/>
		<linearGradient id="SVGID_18_" gradientUnits="userSpaceOnUse" x1="180.0393" y1="96.5119" x2="180.0393" y2="81.6639">
			<stop  offset="0" style="stop-color:#FFFFFF"/>
			<stop  offset="1" style="stop-color:#172982"/>
		</linearGradient>
		<path class="st19" d="M174.6,87.4c-0.6,1.9-2.3,3.6-1.2,5.9c0.4,0.8,2,2.5,2.8,2.7c0.7,0.2,1.7,0.2,2.6,0.3
			c1.5,0.2,2.8,0.3,4.3,0.2c2.9-0.2,3-2.9,3.8-4.8c0.1-2.2,0.2-4.4-0.4-6.9c-0.7-2.7-2.9-3.7-5.1-2.9c-2.8,1-5,3.5-6.5,5.1"/>
		<linearGradient id="SVGID_19_" gradientUnits="userSpaceOnUse" x1="163.2014" y1="105.612" x2="163.2014" y2="88.9433">
			<stop  offset="0" style="stop-color:#FFFFFF"/>
			<stop  offset="1" style="stop-color:#172982"/>
		</linearGradient>
		<path class="st20" d="M162.4,94.8c1.1,1.1,1.8,3,2.3,5.2c0.4,1.9,0.3,4,0.9,5.6c0.5-0.6,0.3-1.6,0.2-2.5c-0.1-1.4-0.2-2.8-0.5-4.4
			c0-0.3-0.2-0.2-0.3-0.4c0-2.4-2-5.2-2.5-7.3c-0.1-0.4,0-1.1-0.2-1.5c-0.2-0.4-1.1-0.8-1.6-0.3c-0.4,0.3-0.1,2,0.1,2.8
			C161.2,93.4,162.1,93.7,162.4,94.8z"/>
		<linearGradient id="SVGID_20_" gradientUnits="userSpaceOnUse" x1="135.7262" y1="98.5448" x2="135.7262" y2="97.5692">
			<stop  offset="0" style="stop-color:#FFFFFF"/>
			<stop  offset="1" style="stop-color:#172982"/>
		</linearGradient>
		<path class="st21" d="M135.9,97.6c-0.2,0.3-0.3,0.6-0.4,1C135.8,98.3,136,97.8,135.9,97.6z"/>
		<linearGradient id="SVGID_21_" gradientUnits="userSpaceOnUse" x1="169.4823" y1="108.3065" x2="169.4823" y2="91.842">
			<stop  offset="0" style="stop-color:#FFFFFF"/>
			<stop  offset="1" style="stop-color:#172982"/>
		</linearGradient>
		<path class="st22" d="M168.7,92c0.4,2.3,0.5,4.6,0.8,6.7c-0.1,0.1-0.1,0.4-0.1,0.5c0.1,0.4,0,0.4,0.1,0.9c-0.4,2-0.5,4-0.9,6.1
			c-0.1,0.7-0.5,1.3-0.3,2c0.5-0.3,0.5-1.1,0.7-1.7c0.5-1.7,1-3.5,1.2-5.4c-0.1-0.2-0.1-0.4-0.1-0.6c0.4-2.6,0.5-5.6,0.5-8.6
			C170.2,91.8,169.3,91.8,168.7,92z"/>
		<linearGradient id="SVGID_22_" gradientUnits="userSpaceOnUse" x1="171.6666" y1="109.1427" x2="171.6666" y2="92.5313">
			<stop  offset="0" style="stop-color:#FFFFFF"/>
			<stop  offset="1" style="stop-color:#172982"/>
		</linearGradient>
		<path class="st23" d="M171.5,99.5c-0.3,0.5-0.5,1.1-0.5,1.7c0,0.2-0.2,0.2-0.2,0.4c-0.3,2-0.9,3.9-1.3,5.8
			c-0.2,0.5-0.6,1.3-0.3,1.8c1.3-2.2,2.3-4.5,3.1-7c0-0.1-0.1-0.2-0.1-0.3c0.5-0.9,0.6-2.5,1-3.8c0.2-0.7,1.2-1.7,1.1-2.4
			c0-0.3-0.4-0.7-0.6-1.1c-0.5-0.9-0.8-1.8-1.4-2.1c-0.8,0.2-0.4,2.1-0.3,2.9C172,96.9,171.6,98.4,171.5,99.5z"/>
		<linearGradient id="SVGID_23_" gradientUnits="userSpaceOnUse" x1="175.4683" y1="115.4838" x2="175.4683" y2="104.0477">
			<stop  offset="0" style="stop-color:#FFFFFF"/>
			<stop  offset="1" style="stop-color:#172982"/>
		</linearGradient>
		<path class="st24" d="M174.3,104.1c-1.9,0.4-2.3,1.8-2.8,3.4c-0.5,1.6-0.8,3.9-0.4,6c0.3,1.4,1.4,2.2,2.7,1.8
			c0.6-0.2,2-1.1,2.5-1.6c1.5-1.2,2.1-2.6,2.9-4.5c0.2-0.4,0.9-1.9,0.7-2.7c-0.3-0.8-1.6-1.2-2.2-1.6
			C176.6,104.3,175.8,103.8,174.3,104.1z"/>
		<linearGradient id="SVGID_24_" gradientUnits="userSpaceOnUse" x1="163.2606" y1="118.7104" x2="163.2606" y2="113.4891">
			<stop  offset="0" style="stop-color:#FFFFFF"/>
			<stop  offset="1" style="stop-color:#172982"/>
		</linearGradient>
		<path class="st25" d="M156.1,117c0.1,1.9,2.4,1.8,3.8,1.6c3-0.5,6.8-2.2,8.5-3.3c1-0.2,2-0.8,2-1.8c-1.2-0.2-2.4,1.1-3.7,1.3
			c-1.9,0.3-4.1,0.8-6.2,1.1C158.9,116.2,157.1,115.8,156.1,117z"/>
		<linearGradient id="SVGID_25_" gradientUnits="userSpaceOnUse" x1="159.8035" y1="124.5407" x2="159.8035" y2="114.987">
			<stop  offset="0" style="stop-color:#FFFFFF"/>
			<stop  offset="1" style="stop-color:#172982"/>
		</linearGradient>
		<path class="st26" d="M153.8,124.5c0-0.4-0.5,0-0.5-0.3c0.3-0.4,0.7,0.1,0.9,0.3c3.7-0.4,6.7-2.1,9.9-3.5c0.6-0.3,1.1-0.4,1.7-0.7
			c2.1-1.1,3.6-2.6,5.2-3.9c0.3-0.3,0.7-1.3,0-1.5c-0.5-0.1-1.4,1-1.4,1c-0.6,0.4-1.3,0.7-2.1,1c-1.3,0.5-2.5,1.4-3.9,1.9
			c-1.1,0.4-2.5,0.8-3.9,1c-1.5,0.1-2.8-0.1-4-0.1c-0.7,0-1.4,0-2.1,0c-1.5,0-5.4,0.2-5.4,2.3c0,2,1.8,2.1,3,2.3
			C152.1,124.5,152.9,124.6,153.8,124.5z"/>
		<linearGradient id="SVGID_26_" gradientUnits="userSpaceOnUse" x1="166.929" y1="125.1466" x2="166.929" y2="116.7065">
			<stop  offset="0" style="stop-color:#FFFFFF"/>
			<stop  offset="1" style="stop-color:#172982"/>
		</linearGradient>
		<path class="st27" d="M172.4,118c0-0.4,0.5-0.7,0.1-1.3c-0.7,0.3-1.1,0.7-1.5,1.2c-0.2,0.1-0.5,0.1-0.4,0.3
			c-2.3,1.5-4.6,2.9-7.3,4.5c-0.6,0.3-2.1,1.1-2,1.7c0.2,1.1,2.4,0.6,3.3,0.4c2.1-0.6,3.7-2.2,5-3.5
			C170.7,120.2,171.5,118.9,172.4,118z"/>
		<linearGradient id="SVGID_27_" gradientUnits="userSpaceOnUse" x1="139.0563" y1="110.5728" x2="139.0563" y2="88.2384">
			<stop  offset="0" style="stop-color:#FFFFFF"/>
			<stop  offset="1" style="stop-color:#172982"/>
		</linearGradient>
		<path class="st28" d="M136.2,98.7c-0.2,0.2-0.4,0.4-0.6,0.6c-1.2,1.3-2,2.6-2.6,4.3c-0.6,1.9-0.9,4.2-1.1,6.2
			c0,0.2,0.1,0.7-0.2,0.8c-0.3-0.4-0.4-1.4-0.4-2c-0.2-2.2,0.3-4.2,0.9-6.1c0.5-1.8,1.3-3.3,2.4-4.4c0.4-0.3,0.6-0.2,0.8-0.7
			c2.5-1.9,5.2-4.4,7.3-6.8c1.1-1.2,2.5-3.2,4.1-2.1c-1,1.8-2.7,3.1-4.2,4.5c-1.8,1.7-3.8,3.4-5.8,5"/>
		<linearGradient id="SVGID_28_" gradientUnits="userSpaceOnUse" x1="166.2005" y1="107.4386" x2="166.2005" y2="90.8135">
			<stop  offset="0" style="stop-color:#FFFFFF"/>
			<stop  offset="1" style="stop-color:#172982"/>
		</linearGradient>
		<path class="st29" d="M164.4,90.9c-0.1,0.9,0.3,1.8,0.6,2.7c0.6,2.1,1.2,4.1,1.4,5.8c0.3,2.1,0.4,4.2,0.4,6.2
			c0,0.6-0.1,1.3,0.2,1.8c0.3-0.4,0.3-1,0.4-1.6c0.4-2.3,0.8-5.3,0.2-8.1c-0.3-1.3-0.8-3-1-4.3C166.4,91.8,166.1,90.4,164.4,90.9z"
			/>
		<linearGradient id="SVGID_29_" gradientUnits="userSpaceOnUse" x1="179.6239" y1="105.5462" x2="179.6239" y2="96.9083">
			<stop  offset="0" style="stop-color:#FFFFFF"/>
			<stop  offset="1" style="stop-color:#172982"/>
		</linearGradient>
		<path class="st30" d="M181.6,105.5c1.2-1.2,3-3.4,3.2-5.3c0.2-2.1-1.3-2.2-2.7-2.5c-0.5-0.1-1.1-0.2-1.6-0.3
			c-1.4-0.3-2.5-0.8-4.2-0.3c-1,1.3-1.4,2.9-1.8,4.6c0.1,0.3,0.2,0.6,0.3,0.9c1.6,1.2,3.8,1.9,5.6,2.9
			C180.8,105.5,181.2,105.4,181.6,105.5z"/>
		<linearGradient id="SVGID_30_" gradientUnits="userSpaceOnUse" x1="160.5889" y1="88.083" x2="160.5889" y2="67.4169">
			<stop  offset="0" style="stop-color:#FFFFFF"/>
			<stop  offset="1" style="stop-color:#172982"/>
		</linearGradient>
		<path class="st31" d="M156.1,83.1c0.9-1.4,2.4-2.4,3-3.9c0.2-0.7,0.1-1.3,0-1.7c-0.8-1.8-1.8-3.1-3-4.2c-1.1-1-2.4-1.7-3.1-2.7
			c-0.6-0.9-0.3-1.6,0.2-2c0.8-0.6,2.5-0.9,3.5-1c2.1-0.2,3.6,0.6,5.2,1.5c1.8,1,3.9,2.9,5,4.6c0.4,0.7,0.8,1.2,1.1,1.8
			c1.3,2.5,0.3,4-0.9,5.3c-0.7,0.8-1.4,1.5-2,2.3c-1.4,1.8-2.5,3.6-4,4.6c-0.7,0.4-0.7,0.4-1.4,0.5c-1.2,0.2-3.6-0.8-4.2-1.9
			C154.8,84.7,155.6,83.9,156.1,83.1z"/>
	</g>
</g>
</svg>
